solid STL generated by MeshLab
  facet normal 7.192537e-001 0.000000e+000 6.947475e-001
    outer loop
      vertex  -1.562500e-001 9.487289e+000 -9.806157e-001
      vertex  -1.977925e-001 9.487289e+000 -9.376078e-001
      vertex  -1.977925e-001 8.487289e+000 -9.376078e-001
    endloop
  endfacet
  facet normal 7.192537e-001 0.000000e+000 6.947475e-001
    outer loop
      vertex  -1.562500e-001 9.487289e+000 -9.806157e-001
      vertex  -1.977925e-001 8.487289e+000 -9.376078e-001
      vertex  -1.562500e-001 8.487289e+000 -9.806157e-001
    endloop
  endfacet
  facet normal 7.192537e-001 0.000000e+000 6.947475e-001
    outer loop
      vertex  -1.562500e-001 8.487289e+000 -9.806157e-001
      vertex  -1.977925e-001 8.487289e+000 -9.376078e-001
      vertex  -1.977925e-001 7.487289e+000 -9.376078e-001
    endloop
  endfacet
  facet normal 7.192537e-001 0.000000e+000 6.947475e-001
    outer loop
      vertex  -1.562500e-001 8.487289e+000 -9.806157e-001
      vertex  -1.977925e-001 7.487289e+000 -9.376078e-001
      vertex  -1.562500e-001 7.487289e+000 -9.806157e-001
    endloop
  endfacet
  facet normal 7.192537e-001 0.000000e+000 6.947475e-001
    outer loop
      vertex  -1.562500e-001 7.487289e+000 -9.806157e-001
      vertex  -1.977925e-001 7.487289e+000 -9.376078e-001
      vertex  -1.977925e-001 6.487289e+000 -9.376078e-001
    endloop
  endfacet
  facet normal 7.192537e-001 0.000000e+000 6.947475e-001
    outer loop
      vertex  -1.562500e-001 7.487289e+000 -9.806157e-001
      vertex  -1.977925e-001 6.487289e+000 -9.376078e-001
      vertex  -1.562500e-001 6.487289e+000 -9.806157e-001
    endloop
  endfacet
  facet normal 7.192537e-001 0.000000e+000 6.947475e-001
    outer loop
      vertex  -1.562500e-001 6.487289e+000 -9.806157e-001
      vertex  -1.977925e-001 6.487289e+000 -9.376078e-001
      vertex  -1.977925e-001 5.487289e+000 -9.376078e-001
    endloop
  endfacet
  facet normal 7.192537e-001 0.000000e+000 6.947475e-001
    outer loop
      vertex  -1.562500e-001 6.487289e+000 -9.806157e-001
      vertex  -1.977925e-001 5.487289e+000 -9.376078e-001
      vertex  -1.562500e-001 5.487289e+000 -9.806157e-001
    endloop
  endfacet
  facet normal 7.192537e-001 0.000000e+000 6.947475e-001
    outer loop
      vertex  -1.562500e-001 5.487289e+000 -9.806157e-001
      vertex  -1.977925e-001 5.487289e+000 -9.376078e-001
      vertex  -1.977925e-001 4.487289e+000 -9.376078e-001
    endloop
  endfacet
  facet normal 7.192537e-001 0.000000e+000 6.947475e-001
    outer loop
      vertex  -1.562500e-001 5.487289e+000 -9.806157e-001
      vertex  -1.977925e-001 4.487289e+000 -9.376078e-001
      vertex  -1.562500e-001 4.487289e+000 -9.806157e-001
    endloop
  endfacet
  facet normal 7.192551e-001 0.000000e+000 6.947460e-001
    outer loop
      vertex  -1.977925e-001 9.487289e+000 -9.376078e-001
      vertex  -2.393350e-001 9.487289e+000 -8.945998e-001
      vertex  -2.393350e-001 8.487289e+000 -8.945998e-001
    endloop
  endfacet
  facet normal 7.192551e-001 0.000000e+000 6.947460e-001
    outer loop
      vertex  -1.977925e-001 9.487289e+000 -9.376078e-001
      vertex  -2.393350e-001 8.487289e+000 -8.945998e-001
      vertex  -1.977925e-001 8.487289e+000 -9.376078e-001
    endloop
  endfacet
  facet normal 7.192551e-001 0.000000e+000 6.947460e-001
    outer loop
      vertex  -1.977925e-001 8.487289e+000 -9.376078e-001
      vertex  -2.393350e-001 8.487289e+000 -8.945998e-001
      vertex  -2.393350e-001 7.487289e+000 -8.945998e-001
    endloop
  endfacet
  facet normal 7.192551e-001 0.000000e+000 6.947460e-001
    outer loop
      vertex  -1.977925e-001 8.487289e+000 -9.376078e-001
      vertex  -2.393350e-001 7.487289e+000 -8.945998e-001
      vertex  -1.977925e-001 7.487289e+000 -9.376078e-001
    endloop
  endfacet
  facet normal 7.192551e-001 0.000000e+000 6.947460e-001
    outer loop
      vertex  -1.977925e-001 7.487289e+000 -9.376078e-001
      vertex  -2.393350e-001 7.487289e+000 -8.945998e-001
      vertex  -2.393350e-001 6.487289e+000 -8.945998e-001
    endloop
  endfacet
  facet normal 7.192551e-001 0.000000e+000 6.947460e-001
    outer loop
      vertex  -1.977925e-001 7.487289e+000 -9.376078e-001
      vertex  -2.393350e-001 6.487289e+000 -8.945998e-001
      vertex  -1.977925e-001 6.487289e+000 -9.376078e-001
    endloop
  endfacet
  facet normal 7.192551e-001 0.000000e+000 6.947460e-001
    outer loop
      vertex  -1.977925e-001 6.487289e+000 -9.376078e-001
      vertex  -2.393350e-001 6.487289e+000 -8.945998e-001
      vertex  -2.393350e-001 5.487289e+000 -8.945998e-001
    endloop
  endfacet
  facet normal 7.192551e-001 0.000000e+000 6.947460e-001
    outer loop
      vertex  -1.977925e-001 6.487289e+000 -9.376078e-001
      vertex  -2.393350e-001 5.487289e+000 -8.945998e-001
      vertex  -1.977925e-001 5.487289e+000 -9.376078e-001
    endloop
  endfacet
  facet normal 7.192551e-001 0.000000e+000 6.947460e-001
    outer loop
      vertex  -1.977925e-001 5.487289e+000 -9.376078e-001
      vertex  -2.393350e-001 5.487289e+000 -8.945998e-001
      vertex  -2.393350e-001 4.487289e+000 -8.945998e-001
    endloop
  endfacet
  facet normal 7.192551e-001 0.000000e+000 6.947460e-001
    outer loop
      vertex  -1.977925e-001 5.487289e+000 -9.376078e-001
      vertex  -2.393350e-001 4.487289e+000 -8.945998e-001
      vertex  -1.977925e-001 4.487289e+000 -9.376078e-001
    endloop
  endfacet
  facet normal 7.192539e-001 0.000000e+000 6.947473e-001
    outer loop
      vertex  -2.393350e-001 9.487289e+000 -8.945998e-001
      vertex  -2.808776e-001 9.487289e+000 -8.515918e-001
      vertex  -2.808776e-001 8.487289e+000 -8.515918e-001
    endloop
  endfacet
  facet normal 7.192539e-001 0.000000e+000 6.947473e-001
    outer loop
      vertex  -2.393350e-001 9.487289e+000 -8.945998e-001
      vertex  -2.808776e-001 8.487289e+000 -8.515918e-001
      vertex  -2.393350e-001 8.487289e+000 -8.945998e-001
    endloop
  endfacet
  facet normal 7.192540e-001 0.000000e+000 6.947473e-001
    outer loop
      vertex  -2.393350e-001 8.487289e+000 -8.945998e-001
      vertex  -2.808776e-001 8.487289e+000 -8.515918e-001
      vertex  -2.808776e-001 7.487289e+000 -8.515918e-001
    endloop
  endfacet
  facet normal 7.192540e-001 0.000000e+000 6.947473e-001
    outer loop
      vertex  -2.393350e-001 8.487289e+000 -8.945998e-001
      vertex  -2.808776e-001 7.487289e+000 -8.515918e-001
      vertex  -2.393350e-001 7.487289e+000 -8.945998e-001
    endloop
  endfacet
  facet normal 7.192539e-001 0.000000e+000 6.947473e-001
    outer loop
      vertex  -2.393350e-001 7.487289e+000 -8.945998e-001
      vertex  -2.808776e-001 7.487289e+000 -8.515918e-001
      vertex  -2.808776e-001 6.487289e+000 -8.515918e-001
    endloop
  endfacet
  facet normal 7.192539e-001 0.000000e+000 6.947473e-001
    outer loop
      vertex  -2.393350e-001 7.487289e+000 -8.945998e-001
      vertex  -2.808776e-001 6.487289e+000 -8.515918e-001
      vertex  -2.393350e-001 6.487289e+000 -8.945998e-001
    endloop
  endfacet
  facet normal 7.192539e-001 0.000000e+000 6.947473e-001
    outer loop
      vertex  -2.393350e-001 6.487289e+000 -8.945998e-001
      vertex  -2.808776e-001 6.487289e+000 -8.515918e-001
      vertex  -2.808776e-001 5.487289e+000 -8.515918e-001
    endloop
  endfacet
  facet normal 7.192539e-001 0.000000e+000 6.947473e-001
    outer loop
      vertex  -2.393350e-001 6.487289e+000 -8.945998e-001
      vertex  -2.808776e-001 5.487289e+000 -8.515918e-001
      vertex  -2.393350e-001 5.487289e+000 -8.945998e-001
    endloop
  endfacet
  facet normal 7.192539e-001 0.000000e+000 6.947473e-001
    outer loop
      vertex  -2.393350e-001 5.487289e+000 -8.945998e-001
      vertex  -2.808776e-001 5.487289e+000 -8.515918e-001
      vertex  -2.808776e-001 4.487289e+000 -8.515918e-001
    endloop
  endfacet
  facet normal 7.192539e-001 0.000000e+000 6.947473e-001
    outer loop
      vertex  -2.393350e-001 5.487289e+000 -8.945998e-001
      vertex  -2.808776e-001 4.487289e+000 -8.515918e-001
      vertex  -2.393350e-001 4.487289e+000 -8.945998e-001
    endloop
  endfacet
  facet normal 7.192551e-001 0.000000e+000 6.947460e-001
    outer loop
      vertex  -2.808776e-001 9.487289e+000 -8.515918e-001
      vertex  -3.224201e-001 9.487289e+000 -8.085838e-001
      vertex  -3.224201e-001 8.487289e+000 -8.085838e-001
    endloop
  endfacet
  facet normal 7.192551e-001 0.000000e+000 6.947460e-001
    outer loop
      vertex  -2.808776e-001 9.487289e+000 -8.515918e-001
      vertex  -3.224201e-001 8.487289e+000 -8.085838e-001
      vertex  -2.808776e-001 8.487289e+000 -8.515918e-001
    endloop
  endfacet
  facet normal 7.192551e-001 0.000000e+000 6.947460e-001
    outer loop
      vertex  -2.808776e-001 8.487289e+000 -8.515918e-001
      vertex  -3.224201e-001 8.487289e+000 -8.085838e-001
      vertex  -3.224201e-001 7.487289e+000 -8.085838e-001
    endloop
  endfacet
  facet normal 7.192551e-001 0.000000e+000 6.947460e-001
    outer loop
      vertex  -2.808776e-001 8.487289e+000 -8.515918e-001
      vertex  -3.224201e-001 7.487289e+000 -8.085838e-001
      vertex  -2.808776e-001 7.487289e+000 -8.515918e-001
    endloop
  endfacet
  facet normal 7.192551e-001 0.000000e+000 6.947460e-001
    outer loop
      vertex  -2.808776e-001 7.487289e+000 -8.515918e-001
      vertex  -3.224201e-001 7.487289e+000 -8.085838e-001
      vertex  -3.224201e-001 6.487289e+000 -8.085838e-001
    endloop
  endfacet
  facet normal 7.192551e-001 0.000000e+000 6.947460e-001
    outer loop
      vertex  -2.808776e-001 7.487289e+000 -8.515918e-001
      vertex  -3.224201e-001 6.487289e+000 -8.085838e-001
      vertex  -2.808776e-001 6.487289e+000 -8.515918e-001
    endloop
  endfacet
  facet normal 7.192551e-001 0.000000e+000 6.947460e-001
    outer loop
      vertex  -2.808776e-001 6.487289e+000 -8.515918e-001
      vertex  -3.224201e-001 6.487289e+000 -8.085838e-001
      vertex  -3.224201e-001 5.487289e+000 -8.085838e-001
    endloop
  endfacet
  facet normal 7.192551e-001 0.000000e+000 6.947460e-001
    outer loop
      vertex  -2.808776e-001 6.487289e+000 -8.515918e-001
      vertex  -3.224201e-001 5.487289e+000 -8.085838e-001
      vertex  -2.808776e-001 5.487289e+000 -8.515918e-001
    endloop
  endfacet
  facet normal 7.192551e-001 0.000000e+000 6.947460e-001
    outer loop
      vertex  -2.808776e-001 5.487289e+000 -8.515918e-001
      vertex  -3.224201e-001 5.487289e+000 -8.085838e-001
      vertex  -3.224201e-001 4.487289e+000 -8.085838e-001
    endloop
  endfacet
  facet normal 7.192551e-001 0.000000e+000 6.947460e-001
    outer loop
      vertex  -2.808776e-001 5.487289e+000 -8.515918e-001
      vertex  -3.224201e-001 4.487289e+000 -8.085838e-001
      vertex  -2.808776e-001 4.487289e+000 -8.515918e-001
    endloop
  endfacet
  facet normal 7.192547e-001 0.000000e+000 6.947466e-001
    outer loop
      vertex  -3.224201e-001 9.487289e+000 -8.085838e-001
      vertex  -3.639626e-001 9.487289e+000 -7.655758e-001
      vertex  -3.639626e-001 8.487289e+000 -7.655758e-001
    endloop
  endfacet
  facet normal 7.192547e-001 0.000000e+000 6.947466e-001
    outer loop
      vertex  -3.224201e-001 9.487289e+000 -8.085838e-001
      vertex  -3.639626e-001 8.487289e+000 -7.655758e-001
      vertex  -3.224201e-001 8.487289e+000 -8.085838e-001
    endloop
  endfacet
  facet normal 7.192547e-001 0.000000e+000 6.947465e-001
    outer loop
      vertex  -3.224201e-001 8.487289e+000 -8.085838e-001
      vertex  -3.639626e-001 8.487289e+000 -7.655758e-001
      vertex  -3.639626e-001 7.487289e+000 -7.655758e-001
    endloop
  endfacet
  facet normal 7.192547e-001 0.000000e+000 6.947465e-001
    outer loop
      vertex  -3.224201e-001 8.487289e+000 -8.085838e-001
      vertex  -3.639626e-001 7.487289e+000 -7.655758e-001
      vertex  -3.224201e-001 7.487289e+000 -8.085838e-001
    endloop
  endfacet
  facet normal 7.192547e-001 0.000000e+000 6.947466e-001
    outer loop
      vertex  -3.224201e-001 7.487289e+000 -8.085838e-001
      vertex  -3.639626e-001 7.487289e+000 -7.655758e-001
      vertex  -3.639626e-001 6.487289e+000 -7.655758e-001
    endloop
  endfacet
  facet normal 7.192547e-001 0.000000e+000 6.947466e-001
    outer loop
      vertex  -3.224201e-001 7.487289e+000 -8.085838e-001
      vertex  -3.639626e-001 6.487289e+000 -7.655758e-001
      vertex  -3.224201e-001 6.487289e+000 -8.085838e-001
    endloop
  endfacet
  facet normal 7.192547e-001 0.000000e+000 6.947466e-001
    outer loop
      vertex  -3.224201e-001 6.487289e+000 -8.085838e-001
      vertex  -3.639626e-001 6.487289e+000 -7.655758e-001
      vertex  -3.639626e-001 5.487289e+000 -7.655758e-001
    endloop
  endfacet
  facet normal 7.192547e-001 0.000000e+000 6.947466e-001
    outer loop
      vertex  -3.224201e-001 6.487289e+000 -8.085838e-001
      vertex  -3.639626e-001 5.487289e+000 -7.655758e-001
      vertex  -3.224201e-001 5.487289e+000 -8.085838e-001
    endloop
  endfacet
  facet normal 7.192547e-001 0.000000e+000 6.947466e-001
    outer loop
      vertex  -3.224201e-001 5.487289e+000 -8.085838e-001
      vertex  -3.639626e-001 5.487289e+000 -7.655758e-001
      vertex  -3.639626e-001 4.487289e+000 -7.655758e-001
    endloop
  endfacet
  facet normal 7.192547e-001 0.000000e+000 6.947466e-001
    outer loop
      vertex  -3.224201e-001 5.487289e+000 -8.085838e-001
      vertex  -3.639626e-001 4.487289e+000 -7.655758e-001
      vertex  -3.224201e-001 4.487289e+000 -8.085838e-001
    endloop
  endfacet
  facet normal 0.000000e+000 0.000000e+000 1.000000e+000
    outer loop
      vertex  1.562500e-001 9.487289e+000 -9.806157e-001
      vertex  9.375000e-002 9.487289e+000 -9.806157e-001
      vertex  9.375000e-002 8.487289e+000 -9.806157e-001
    endloop
  endfacet
  facet normal 0.000000e+000 0.000000e+000 1.000000e+000
    outer loop
      vertex  1.562500e-001 9.487289e+000 -9.806157e-001
      vertex  9.375000e-002 8.487289e+000 -9.806157e-001
      vertex  1.562500e-001 8.487289e+000 -9.806157e-001
    endloop
  endfacet
  facet normal 0.000000e+000 0.000000e+000 1.000000e+000
    outer loop
      vertex  1.562500e-001 8.487289e+000 -9.806157e-001
      vertex  9.375000e-002 8.487289e+000 -9.806157e-001
      vertex  9.375000e-002 7.487289e+000 -9.806157e-001
    endloop
  endfacet
  facet normal 0.000000e+000 0.000000e+000 1.000000e+000
    outer loop
      vertex  1.562500e-001 8.487289e+000 -9.806157e-001
      vertex  9.375000e-002 7.487289e+000 -9.806157e-001
      vertex  1.562500e-001 7.487289e+000 -9.806157e-001
    endloop
  endfacet
  facet normal 0.000000e+000 0.000000e+000 1.000000e+000
    outer loop
      vertex  1.562500e-001 7.487289e+000 -9.806157e-001
      vertex  9.375000e-002 7.487289e+000 -9.806157e-001
      vertex  9.375000e-002 6.487289e+000 -9.806157e-001
    endloop
  endfacet
  facet normal 0.000000e+000 0.000000e+000 1.000000e+000
    outer loop
      vertex  1.562500e-001 7.487289e+000 -9.806157e-001
      vertex  9.375000e-002 6.487289e+000 -9.806157e-001
      vertex  1.562500e-001 6.487289e+000 -9.806157e-001
    endloop
  endfacet
  facet normal 0.000000e+000 0.000000e+000 1.000000e+000
    outer loop
      vertex  1.562500e-001 6.487289e+000 -9.806157e-001
      vertex  9.375000e-002 6.487289e+000 -9.806157e-001
      vertex  9.375000e-002 5.487289e+000 -9.806157e-001
    endloop
  endfacet
  facet normal 0.000000e+000 0.000000e+000 1.000000e+000
    outer loop
      vertex  1.562500e-001 6.487289e+000 -9.806157e-001
      vertex  9.375000e-002 5.487289e+000 -9.806157e-001
      vertex  1.562500e-001 5.487289e+000 -9.806157e-001
    endloop
  endfacet
  facet normal 0.000000e+000 0.000000e+000 1.000000e+000
    outer loop
      vertex  1.562500e-001 5.487289e+000 -9.806157e-001
      vertex  9.375000e-002 5.487289e+000 -9.806157e-001
      vertex  9.375000e-002 4.487289e+000 -9.806157e-001
    endloop
  endfacet
  facet normal 0.000000e+000 0.000000e+000 1.000000e+000
    outer loop
      vertex  1.562500e-001 5.487289e+000 -9.806157e-001
      vertex  9.375000e-002 4.487289e+000 -9.806157e-001
      vertex  1.562500e-001 4.487289e+000 -9.806157e-001
    endloop
  endfacet
  facet normal 0.000000e+000 0.000000e+000 1.000000e+000
    outer loop
      vertex  9.375000e-002 9.487289e+000 -9.806157e-001
      vertex  3.125000e-002 9.487289e+000 -9.806157e-001
      vertex  3.125000e-002 8.487289e+000 -9.806157e-001
    endloop
  endfacet
  facet normal 0.000000e+000 0.000000e+000 1.000000e+000
    outer loop
      vertex  9.375000e-002 9.487289e+000 -9.806157e-001
      vertex  3.125000e-002 8.487289e+000 -9.806157e-001
      vertex  9.375000e-002 8.487289e+000 -9.806157e-001
    endloop
  endfacet
  facet normal 0.000000e+000 0.000000e+000 1.000000e+000
    outer loop
      vertex  9.375000e-002 8.487289e+000 -9.806157e-001
      vertex  3.125000e-002 8.487289e+000 -9.806157e-001
      vertex  3.125000e-002 7.487289e+000 -9.806157e-001
    endloop
  endfacet
  facet normal 0.000000e+000 0.000000e+000 1.000000e+000
    outer loop
      vertex  9.375000e-002 8.487289e+000 -9.806157e-001
      vertex  3.125000e-002 7.487289e+000 -9.806157e-001
      vertex  9.375000e-002 7.487289e+000 -9.806157e-001
    endloop
  endfacet
  facet normal 0.000000e+000 0.000000e+000 1.000000e+000
    outer loop
      vertex  9.375000e-002 7.487289e+000 -9.806157e-001
      vertex  3.125000e-002 7.487289e+000 -9.806157e-001
      vertex  3.125000e-002 6.487289e+000 -9.806157e-001
    endloop
  endfacet
  facet normal 0.000000e+000 0.000000e+000 1.000000e+000
    outer loop
      vertex  9.375000e-002 7.487289e+000 -9.806157e-001
      vertex  3.125000e-002 6.487289e+000 -9.806157e-001
      vertex  9.375000e-002 6.487289e+000 -9.806157e-001
    endloop
  endfacet
  facet normal 0.000000e+000 0.000000e+000 1.000000e+000
    outer loop
      vertex  9.375000e-002 6.487289e+000 -9.806157e-001
      vertex  3.125000e-002 6.487289e+000 -9.806157e-001
      vertex  3.125000e-002 5.487289e+000 -9.806157e-001
    endloop
  endfacet
  facet normal 0.000000e+000 0.000000e+000 1.000000e+000
    outer loop
      vertex  9.375000e-002 6.487289e+000 -9.806157e-001
      vertex  3.125000e-002 5.487289e+000 -9.806157e-001
      vertex  9.375000e-002 5.487289e+000 -9.806157e-001
    endloop
  endfacet
  facet normal 0.000000e+000 0.000000e+000 1.000000e+000
    outer loop
      vertex  9.375000e-002 5.487289e+000 -9.806157e-001
      vertex  3.125000e-002 5.487289e+000 -9.806157e-001
      vertex  3.125000e-002 4.487289e+000 -9.806157e-001
    endloop
  endfacet
  facet normal 0.000000e+000 0.000000e+000 1.000000e+000
    outer loop
      vertex  9.375000e-002 5.487289e+000 -9.806157e-001
      vertex  3.125000e-002 4.487289e+000 -9.806157e-001
      vertex  9.375000e-002 4.487289e+000 -9.806157e-001
    endloop
  endfacet
  facet normal 0.000000e+000 0.000000e+000 1.000000e+000
    outer loop
      vertex  3.125000e-002 9.487289e+000 -9.806157e-001
      vertex  -3.125000e-002 9.487289e+000 -9.806157e-001
      vertex  -3.125000e-002 8.487289e+000 -9.806157e-001
    endloop
  endfacet
  facet normal 0.000000e+000 0.000000e+000 1.000000e+000
    outer loop
      vertex  3.125000e-002 9.487289e+000 -9.806157e-001
      vertex  -3.125000e-002 8.487289e+000 -9.806157e-001
      vertex  3.125000e-002 8.487289e+000 -9.806157e-001
    endloop
  endfacet
  facet normal 0.000000e+000 0.000000e+000 1.000000e+000
    outer loop
      vertex  3.125000e-002 8.487289e+000 -9.806157e-001
      vertex  -3.125000e-002 8.487289e+000 -9.806157e-001
      vertex  -3.125000e-002 7.487289e+000 -9.806157e-001
    endloop
  endfacet
  facet normal 0.000000e+000 0.000000e+000 1.000000e+000
    outer loop
      vertex  3.125000e-002 8.487289e+000 -9.806157e-001
      vertex  -3.125000e-002 7.487289e+000 -9.806157e-001
      vertex  3.125000e-002 7.487289e+000 -9.806157e-001
    endloop
  endfacet
  facet normal 0.000000e+000 0.000000e+000 1.000000e+000
    outer loop
      vertex  3.125000e-002 7.487289e+000 -9.806157e-001
      vertex  -3.125000e-002 7.487289e+000 -9.806157e-001
      vertex  -3.125000e-002 6.487289e+000 -9.806157e-001
    endloop
  endfacet
  facet normal 0.000000e+000 0.000000e+000 1.000000e+000
    outer loop
      vertex  3.125000e-002 7.487289e+000 -9.806157e-001
      vertex  -3.125000e-002 6.487289e+000 -9.806157e-001
      vertex  3.125000e-002 6.487289e+000 -9.806157e-001
    endloop
  endfacet
  facet normal 0.000000e+000 0.000000e+000 1.000000e+000
    outer loop
      vertex  3.125000e-002 6.487289e+000 -9.806157e-001
      vertex  -3.125000e-002 6.487289e+000 -9.806157e-001
      vertex  -3.125000e-002 5.487289e+000 -9.806157e-001
    endloop
  endfacet
  facet normal 0.000000e+000 0.000000e+000 1.000000e+000
    outer loop
      vertex  3.125000e-002 6.487289e+000 -9.806157e-001
      vertex  -3.125000e-002 5.487289e+000 -9.806157e-001
      vertex  3.125000e-002 5.487289e+000 -9.806157e-001
    endloop
  endfacet
  facet normal 0.000000e+000 0.000000e+000 1.000000e+000
    outer loop
      vertex  3.125000e-002 5.487289e+000 -9.806157e-001
      vertex  -3.125000e-002 5.487289e+000 -9.806157e-001
      vertex  -3.125000e-002 4.487289e+000 -9.806157e-001
    endloop
  endfacet
  facet normal 0.000000e+000 0.000000e+000 1.000000e+000
    outer loop
      vertex  3.125000e-002 5.487289e+000 -9.806157e-001
      vertex  -3.125000e-002 4.487289e+000 -9.806157e-001
      vertex  3.125000e-002 4.487289e+000 -9.806157e-001
    endloop
  endfacet
  facet normal 0.000000e+000 0.000000e+000 1.000000e+000
    outer loop
      vertex  -3.125000e-002 9.487289e+000 -9.806157e-001
      vertex  -9.375000e-002 9.487289e+000 -9.806157e-001
      vertex  -9.375000e-002 8.487289e+000 -9.806157e-001
    endloop
  endfacet
  facet normal 0.000000e+000 0.000000e+000 1.000000e+000
    outer loop
      vertex  -3.125000e-002 9.487289e+000 -9.806157e-001
      vertex  -9.375000e-002 8.487289e+000 -9.806157e-001
      vertex  -3.125000e-002 8.487289e+000 -9.806157e-001
    endloop
  endfacet
  facet normal 0.000000e+000 0.000000e+000 1.000000e+000
    outer loop
      vertex  -3.125000e-002 8.487289e+000 -9.806157e-001
      vertex  -9.375000e-002 8.487289e+000 -9.806157e-001
      vertex  -9.375000e-002 7.487289e+000 -9.806157e-001
    endloop
  endfacet
  facet normal 0.000000e+000 0.000000e+000 1.000000e+000
    outer loop
      vertex  -3.125000e-002 8.487289e+000 -9.806157e-001
      vertex  -9.375000e-002 7.487289e+000 -9.806157e-001
      vertex  -3.125000e-002 7.487289e+000 -9.806157e-001
    endloop
  endfacet
  facet normal 0.000000e+000 0.000000e+000 1.000000e+000
    outer loop
      vertex  -3.125000e-002 7.487289e+000 -9.806157e-001
      vertex  -9.375000e-002 7.487289e+000 -9.806157e-001
      vertex  -9.375000e-002 6.487289e+000 -9.806157e-001
    endloop
  endfacet
  facet normal 0.000000e+000 0.000000e+000 1.000000e+000
    outer loop
      vertex  -3.125000e-002 7.487289e+000 -9.806157e-001
      vertex  -9.375000e-002 6.487289e+000 -9.806157e-001
      vertex  -3.125000e-002 6.487289e+000 -9.806157e-001
    endloop
  endfacet
  facet normal 0.000000e+000 0.000000e+000 1.000000e+000
    outer loop
      vertex  -3.125000e-002 6.487289e+000 -9.806157e-001
      vertex  -9.375000e-002 6.487289e+000 -9.806157e-001
      vertex  -9.375000e-002 5.487289e+000 -9.806157e-001
    endloop
  endfacet
  facet normal 0.000000e+000 0.000000e+000 1.000000e+000
    outer loop
      vertex  -3.125000e-002 6.487289e+000 -9.806157e-001
      vertex  -9.375000e-002 5.487289e+000 -9.806157e-001
      vertex  -3.125000e-002 5.487289e+000 -9.806157e-001
    endloop
  endfacet
  facet normal 0.000000e+000 0.000000e+000 1.000000e+000
    outer loop
      vertex  -3.125000e-002 5.487289e+000 -9.806157e-001
      vertex  -9.375000e-002 5.487289e+000 -9.806157e-001
      vertex  -9.375000e-002 4.487289e+000 -9.806157e-001
    endloop
  endfacet
  facet normal 0.000000e+000 0.000000e+000 1.000000e+000
    outer loop
      vertex  -3.125000e-002 5.487289e+000 -9.806157e-001
      vertex  -9.375000e-002 4.487289e+000 -9.806157e-001
      vertex  -3.125000e-002 4.487289e+000 -9.806157e-001
    endloop
  endfacet
  facet normal 0.000000e+000 0.000000e+000 1.000000e+000
    outer loop
      vertex  -9.375000e-002 9.487289e+000 -9.806157e-001
      vertex  -1.562500e-001 9.487289e+000 -9.806157e-001
      vertex  -1.562500e-001 8.487289e+000 -9.806157e-001
    endloop
  endfacet
  facet normal 0.000000e+000 0.000000e+000 1.000000e+000
    outer loop
      vertex  -9.375000e-002 9.487289e+000 -9.806157e-001
      vertex  -1.562500e-001 8.487289e+000 -9.806157e-001
      vertex  -9.375000e-002 8.487289e+000 -9.806157e-001
    endloop
  endfacet
  facet normal 0.000000e+000 0.000000e+000 1.000000e+000
    outer loop
      vertex  -9.375000e-002 8.487289e+000 -9.806157e-001
      vertex  -1.562500e-001 8.487289e+000 -9.806157e-001
      vertex  -1.562500e-001 7.487289e+000 -9.806157e-001
    endloop
  endfacet
  facet normal 0.000000e+000 0.000000e+000 1.000000e+000
    outer loop
      vertex  -9.375000e-002 8.487289e+000 -9.806157e-001
      vertex  -1.562500e-001 7.487289e+000 -9.806157e-001
      vertex  -9.375000e-002 7.487289e+000 -9.806157e-001
    endloop
  endfacet
  facet normal 0.000000e+000 0.000000e+000 1.000000e+000
    outer loop
      vertex  -9.375000e-002 7.487289e+000 -9.806157e-001
      vertex  -1.562500e-001 7.487289e+000 -9.806157e-001
      vertex  -1.562500e-001 6.487289e+000 -9.806157e-001
    endloop
  endfacet
  facet normal 0.000000e+000 0.000000e+000 1.000000e+000
    outer loop
      vertex  -9.375000e-002 7.487289e+000 -9.806157e-001
      vertex  -1.562500e-001 6.487289e+000 -9.806157e-001
      vertex  -9.375000e-002 6.487289e+000 -9.806157e-001
    endloop
  endfacet
  facet normal 0.000000e+000 0.000000e+000 1.000000e+000
    outer loop
      vertex  -9.375000e-002 6.487289e+000 -9.806157e-001
      vertex  -1.562500e-001 6.487289e+000 -9.806157e-001
      vertex  -1.562500e-001 5.487289e+000 -9.806157e-001
    endloop
  endfacet
  facet normal 0.000000e+000 0.000000e+000 1.000000e+000
    outer loop
      vertex  -9.375000e-002 6.487289e+000 -9.806157e-001
      vertex  -1.562500e-001 5.487289e+000 -9.806157e-001
      vertex  -9.375000e-002 5.487289e+000 -9.806157e-001
    endloop
  endfacet
  facet normal 0.000000e+000 0.000000e+000 1.000000e+000
    outer loop
      vertex  -9.375000e-002 5.487289e+000 -9.806157e-001
      vertex  -1.562500e-001 5.487289e+000 -9.806157e-001
      vertex  -1.562500e-001 4.487289e+000 -9.806157e-001
    endloop
  endfacet
  facet normal 0.000000e+000 0.000000e+000 1.000000e+000
    outer loop
      vertex  -9.375000e-002 5.487289e+000 -9.806157e-001
      vertex  -1.562500e-001 4.487289e+000 -9.806157e-001
      vertex  -9.375000e-002 4.487289e+000 -9.806157e-001
    endloop
  endfacet
  facet normal -7.192547e-001 0.000000e+000 6.947466e-001
    outer loop
      vertex  3.639626e-001 9.487289e+000 -7.655758e-001
      vertex  3.224201e-001 9.487289e+000 -8.085838e-001
      vertex  3.224201e-001 8.487289e+000 -8.085838e-001
    endloop
  endfacet
  facet normal -7.192547e-001 0.000000e+000 6.947466e-001
    outer loop
      vertex  3.639626e-001 9.487289e+000 -7.655758e-001
      vertex  3.224201e-001 8.487289e+000 -8.085838e-001
      vertex  3.639626e-001 8.487289e+000 -7.655758e-001
    endloop
  endfacet
  facet normal -7.192547e-001 0.000000e+000 6.947465e-001
    outer loop
      vertex  3.639626e-001 8.487289e+000 -7.655758e-001
      vertex  3.224201e-001 8.487289e+000 -8.085838e-001
      vertex  3.224201e-001 7.487289e+000 -8.085838e-001
    endloop
  endfacet
  facet normal -7.192547e-001 0.000000e+000 6.947465e-001
    outer loop
      vertex  3.639626e-001 8.487289e+000 -7.655758e-001
      vertex  3.224201e-001 7.487289e+000 -8.085838e-001
      vertex  3.639626e-001 7.487289e+000 -7.655758e-001
    endloop
  endfacet
  facet normal -7.192547e-001 0.000000e+000 6.947466e-001
    outer loop
      vertex  3.639626e-001 7.487289e+000 -7.655758e-001
      vertex  3.224201e-001 7.487289e+000 -8.085838e-001
      vertex  3.224201e-001 6.487289e+000 -8.085838e-001
    endloop
  endfacet
  facet normal -7.192547e-001 0.000000e+000 6.947466e-001
    outer loop
      vertex  3.639626e-001 7.487289e+000 -7.655758e-001
      vertex  3.224201e-001 6.487289e+000 -8.085838e-001
      vertex  3.639626e-001 6.487289e+000 -7.655758e-001
    endloop
  endfacet
  facet normal -7.192547e-001 0.000000e+000 6.947466e-001
    outer loop
      vertex  3.639626e-001 6.487289e+000 -7.655758e-001
      vertex  3.224201e-001 6.487289e+000 -8.085838e-001
      vertex  3.224201e-001 5.487289e+000 -8.085838e-001
    endloop
  endfacet
  facet normal -7.192547e-001 0.000000e+000 6.947466e-001
    outer loop
      vertex  3.639626e-001 6.487289e+000 -7.655758e-001
      vertex  3.224201e-001 5.487289e+000 -8.085838e-001
      vertex  3.639626e-001 5.487289e+000 -7.655758e-001
    endloop
  endfacet
  facet normal -7.192547e-001 0.000000e+000 6.947466e-001
    outer loop
      vertex  3.639626e-001 5.487289e+000 -7.655758e-001
      vertex  3.224201e-001 5.487289e+000 -8.085838e-001
      vertex  3.224201e-001 4.487289e+000 -8.085838e-001
    endloop
  endfacet
  facet normal -7.192547e-001 0.000000e+000 6.947466e-001
    outer loop
      vertex  3.639626e-001 5.487289e+000 -7.655758e-001
      vertex  3.224201e-001 4.487289e+000 -8.085838e-001
      vertex  3.639626e-001 4.487289e+000 -7.655758e-001
    endloop
  endfacet
  facet normal -7.192551e-001 0.000000e+000 6.947460e-001
    outer loop
      vertex  3.224201e-001 9.487289e+000 -8.085838e-001
      vertex  2.808776e-001 9.487289e+000 -8.515918e-001
      vertex  2.808776e-001 8.487289e+000 -8.515918e-001
    endloop
  endfacet
  facet normal -7.192551e-001 0.000000e+000 6.947460e-001
    outer loop
      vertex  3.224201e-001 9.487289e+000 -8.085838e-001
      vertex  2.808776e-001 8.487289e+000 -8.515918e-001
      vertex  3.224201e-001 8.487289e+000 -8.085838e-001
    endloop
  endfacet
  facet normal -7.192551e-001 0.000000e+000 6.947460e-001
    outer loop
      vertex  3.224201e-001 8.487289e+000 -8.085838e-001
      vertex  2.808776e-001 8.487289e+000 -8.515918e-001
      vertex  2.808776e-001 7.487289e+000 -8.515918e-001
    endloop
  endfacet
  facet normal -7.192551e-001 0.000000e+000 6.947460e-001
    outer loop
      vertex  3.224201e-001 8.487289e+000 -8.085838e-001
      vertex  2.808776e-001 7.487289e+000 -8.515918e-001
      vertex  3.224201e-001 7.487289e+000 -8.085838e-001
    endloop
  endfacet
  facet normal -7.192551e-001 0.000000e+000 6.947460e-001
    outer loop
      vertex  3.224201e-001 7.487289e+000 -8.085838e-001
      vertex  2.808776e-001 7.487289e+000 -8.515918e-001
      vertex  2.808776e-001 6.487289e+000 -8.515918e-001
    endloop
  endfacet
  facet normal -7.192551e-001 0.000000e+000 6.947460e-001
    outer loop
      vertex  3.224201e-001 7.487289e+000 -8.085838e-001
      vertex  2.808776e-001 6.487289e+000 -8.515918e-001
      vertex  3.224201e-001 6.487289e+000 -8.085838e-001
    endloop
  endfacet
  facet normal -7.192551e-001 0.000000e+000 6.947460e-001
    outer loop
      vertex  3.224201e-001 6.487289e+000 -8.085838e-001
      vertex  2.808776e-001 6.487289e+000 -8.515918e-001
      vertex  2.808776e-001 5.487289e+000 -8.515918e-001
    endloop
  endfacet
  facet normal -7.192551e-001 0.000000e+000 6.947460e-001
    outer loop
      vertex  3.224201e-001 6.487289e+000 -8.085838e-001
      vertex  2.808776e-001 5.487289e+000 -8.515918e-001
      vertex  3.224201e-001 5.487289e+000 -8.085838e-001
    endloop
  endfacet
  facet normal -7.192551e-001 0.000000e+000 6.947460e-001
    outer loop
      vertex  3.224201e-001 5.487289e+000 -8.085838e-001
      vertex  2.808776e-001 5.487289e+000 -8.515918e-001
      vertex  2.808776e-001 4.487289e+000 -8.515918e-001
    endloop
  endfacet
  facet normal -7.192551e-001 0.000000e+000 6.947460e-001
    outer loop
      vertex  3.224201e-001 5.487289e+000 -8.085838e-001
      vertex  2.808776e-001 4.487289e+000 -8.515918e-001
      vertex  3.224201e-001 4.487289e+000 -8.085838e-001
    endloop
  endfacet
  facet normal -7.192539e-001 0.000000e+000 6.947473e-001
    outer loop
      vertex  2.808776e-001 9.487289e+000 -8.515918e-001
      vertex  2.393350e-001 9.487289e+000 -8.945998e-001
      vertex  2.393350e-001 8.487289e+000 -8.945998e-001
    endloop
  endfacet
  facet normal -7.192539e-001 0.000000e+000 6.947473e-001
    outer loop
      vertex  2.808776e-001 9.487289e+000 -8.515918e-001
      vertex  2.393350e-001 8.487289e+000 -8.945998e-001
      vertex  2.808776e-001 8.487289e+000 -8.515918e-001
    endloop
  endfacet
  facet normal -7.192540e-001 0.000000e+000 6.947473e-001
    outer loop
      vertex  2.808776e-001 8.487289e+000 -8.515918e-001
      vertex  2.393350e-001 8.487289e+000 -8.945998e-001
      vertex  2.393350e-001 7.487289e+000 -8.945998e-001
    endloop
  endfacet
  facet normal -7.192540e-001 0.000000e+000 6.947473e-001
    outer loop
      vertex  2.808776e-001 8.487289e+000 -8.515918e-001
      vertex  2.393350e-001 7.487289e+000 -8.945998e-001
      vertex  2.808776e-001 7.487289e+000 -8.515918e-001
    endloop
  endfacet
  facet normal -7.192539e-001 0.000000e+000 6.947473e-001
    outer loop
      vertex  2.808776e-001 7.487289e+000 -8.515918e-001
      vertex  2.393350e-001 7.487289e+000 -8.945998e-001
      vertex  2.393350e-001 6.487289e+000 -8.945998e-001
    endloop
  endfacet
  facet normal -7.192539e-001 0.000000e+000 6.947473e-001
    outer loop
      vertex  2.808776e-001 7.487289e+000 -8.515918e-001
      vertex  2.393350e-001 6.487289e+000 -8.945998e-001
      vertex  2.808776e-001 6.487289e+000 -8.515918e-001
    endloop
  endfacet
  facet normal -7.192539e-001 0.000000e+000 6.947473e-001
    outer loop
      vertex  2.808776e-001 6.487289e+000 -8.515918e-001
      vertex  2.393350e-001 6.487289e+000 -8.945998e-001
      vertex  2.393350e-001 5.487289e+000 -8.945998e-001
    endloop
  endfacet
  facet normal -7.192539e-001 0.000000e+000 6.947473e-001
    outer loop
      vertex  2.808776e-001 6.487289e+000 -8.515918e-001
      vertex  2.393350e-001 5.487289e+000 -8.945998e-001
      vertex  2.808776e-001 5.487289e+000 -8.515918e-001
    endloop
  endfacet
  facet normal -7.192539e-001 0.000000e+000 6.947473e-001
    outer loop
      vertex  2.808776e-001 5.487289e+000 -8.515918e-001
      vertex  2.393350e-001 5.487289e+000 -8.945998e-001
      vertex  2.393350e-001 4.487289e+000 -8.945998e-001
    endloop
  endfacet
  facet normal -7.192539e-001 0.000000e+000 6.947473e-001
    outer loop
      vertex  2.808776e-001 5.487289e+000 -8.515918e-001
      vertex  2.393350e-001 4.487289e+000 -8.945998e-001
      vertex  2.808776e-001 4.487289e+000 -8.515918e-001
    endloop
  endfacet
  facet normal -7.192551e-001 0.000000e+000 6.947460e-001
    outer loop
      vertex  2.393350e-001 9.487289e+000 -8.945998e-001
      vertex  1.977925e-001 9.487289e+000 -9.376078e-001
      vertex  1.977925e-001 8.487289e+000 -9.376078e-001
    endloop
  endfacet
  facet normal -7.192551e-001 0.000000e+000 6.947460e-001
    outer loop
      vertex  2.393350e-001 9.487289e+000 -8.945998e-001
      vertex  1.977925e-001 8.487289e+000 -9.376078e-001
      vertex  2.393350e-001 8.487289e+000 -8.945998e-001
    endloop
  endfacet
  facet normal -7.192551e-001 0.000000e+000 6.947460e-001
    outer loop
      vertex  2.393350e-001 8.487289e+000 -8.945998e-001
      vertex  1.977925e-001 8.487289e+000 -9.376078e-001
      vertex  1.977925e-001 7.487289e+000 -9.376078e-001
    endloop
  endfacet
  facet normal -7.192551e-001 0.000000e+000 6.947460e-001
    outer loop
      vertex  2.393350e-001 8.487289e+000 -8.945998e-001
      vertex  1.977925e-001 7.487289e+000 -9.376078e-001
      vertex  2.393350e-001 7.487289e+000 -8.945998e-001
    endloop
  endfacet
  facet normal -7.192551e-001 0.000000e+000 6.947460e-001
    outer loop
      vertex  2.393350e-001 7.487289e+000 -8.945998e-001
      vertex  1.977925e-001 7.487289e+000 -9.376078e-001
      vertex  1.977925e-001 6.487289e+000 -9.376078e-001
    endloop
  endfacet
  facet normal -7.192551e-001 0.000000e+000 6.947460e-001
    outer loop
      vertex  2.393350e-001 7.487289e+000 -8.945998e-001
      vertex  1.977925e-001 6.487289e+000 -9.376078e-001
      vertex  2.393350e-001 6.487289e+000 -8.945998e-001
    endloop
  endfacet
  facet normal -7.192551e-001 0.000000e+000 6.947460e-001
    outer loop
      vertex  2.393350e-001 6.487289e+000 -8.945998e-001
      vertex  1.977925e-001 6.487289e+000 -9.376078e-001
      vertex  1.977925e-001 5.487289e+000 -9.376078e-001
    endloop
  endfacet
  facet normal -7.192551e-001 0.000000e+000 6.947460e-001
    outer loop
      vertex  2.393350e-001 6.487289e+000 -8.945998e-001
      vertex  1.977925e-001 5.487289e+000 -9.376078e-001
      vertex  2.393350e-001 5.487289e+000 -8.945998e-001
    endloop
  endfacet
  facet normal -7.192551e-001 0.000000e+000 6.947460e-001
    outer loop
      vertex  2.393350e-001 5.487289e+000 -8.945998e-001
      vertex  1.977925e-001 5.487289e+000 -9.376078e-001
      vertex  1.977925e-001 4.487289e+000 -9.376078e-001
    endloop
  endfacet
  facet normal -7.192551e-001 0.000000e+000 6.947460e-001
    outer loop
      vertex  2.393350e-001 5.487289e+000 -8.945998e-001
      vertex  1.977925e-001 4.487289e+000 -9.376078e-001
      vertex  2.393350e-001 4.487289e+000 -8.945998e-001
    endloop
  endfacet
  facet normal -7.192537e-001 0.000000e+000 6.947475e-001
    outer loop
      vertex  1.977925e-001 9.487289e+000 -9.376078e-001
      vertex  1.562500e-001 9.487289e+000 -9.806157e-001
      vertex  1.562500e-001 8.487289e+000 -9.806157e-001
    endloop
  endfacet
  facet normal -7.192537e-001 0.000000e+000 6.947475e-001
    outer loop
      vertex  1.977925e-001 9.487289e+000 -9.376078e-001
      vertex  1.562500e-001 8.487289e+000 -9.806157e-001
      vertex  1.977925e-001 8.487289e+000 -9.376078e-001
    endloop
  endfacet
  facet normal -7.192537e-001 0.000000e+000 6.947475e-001
    outer loop
      vertex  1.977925e-001 8.487289e+000 -9.376078e-001
      vertex  1.562500e-001 8.487289e+000 -9.806157e-001
      vertex  1.562500e-001 7.487289e+000 -9.806157e-001
    endloop
  endfacet
  facet normal -7.192537e-001 0.000000e+000 6.947475e-001
    outer loop
      vertex  1.977925e-001 8.487289e+000 -9.376078e-001
      vertex  1.562500e-001 7.487289e+000 -9.806157e-001
      vertex  1.977925e-001 7.487289e+000 -9.376078e-001
    endloop
  endfacet
  facet normal -7.192537e-001 0.000000e+000 6.947475e-001
    outer loop
      vertex  1.977925e-001 7.487289e+000 -9.376078e-001
      vertex  1.562500e-001 7.487289e+000 -9.806157e-001
      vertex  1.562500e-001 6.487289e+000 -9.806157e-001
    endloop
  endfacet
  facet normal -7.192537e-001 0.000000e+000 6.947475e-001
    outer loop
      vertex  1.977925e-001 7.487289e+000 -9.376078e-001
      vertex  1.562500e-001 6.487289e+000 -9.806157e-001
      vertex  1.977925e-001 6.487289e+000 -9.376078e-001
    endloop
  endfacet
  facet normal -7.192537e-001 0.000000e+000 6.947475e-001
    outer loop
      vertex  1.977925e-001 6.487289e+000 -9.376078e-001
      vertex  1.562500e-001 6.487289e+000 -9.806157e-001
      vertex  1.562500e-001 5.487289e+000 -9.806157e-001
    endloop
  endfacet
  facet normal -7.192537e-001 0.000000e+000 6.947475e-001
    outer loop
      vertex  1.977925e-001 6.487289e+000 -9.376078e-001
      vertex  1.562500e-001 5.487289e+000 -9.806157e-001
      vertex  1.977925e-001 5.487289e+000 -9.376078e-001
    endloop
  endfacet
  facet normal -7.192537e-001 0.000000e+000 6.947475e-001
    outer loop
      vertex  1.977925e-001 5.487289e+000 -9.376078e-001
      vertex  1.562500e-001 5.487289e+000 -9.806157e-001
      vertex  1.562500e-001 4.487289e+000 -9.806157e-001
    endloop
  endfacet
  facet normal -7.192537e-001 0.000000e+000 6.947475e-001
    outer loop
      vertex  1.977925e-001 5.487289e+000 -9.376078e-001
      vertex  1.562500e-001 4.487289e+000 -9.806157e-001
      vertex  1.977925e-001 4.487289e+000 -9.376078e-001
    endloop
  endfacet
endsolid vcg
