solid STL generated by MeshLab
  facet normal -7.066535e-001 1.483090e-001 6.918419e-001
    outer loop
      vertex  3.639626e-001 2.609197e+000 -2.623427e-001
      vertex  3.224201e-001 2.598445e+000 -3.024697e-001
      vertex  3.361861e-001 2.095219e+000 -1.805332e-001
    endloop
  endfacet
  facet normal -5.934162e-001 1.577011e-001 7.892957e-001
    outer loop
      vertex  3.639626e-001 2.609197e+000 -2.623427e-001
      vertex  3.361861e-001 2.095219e+000 -1.805332e-001
      vertex  3.811701e-001 2.103821e+000 -1.484316e-001
    endloop
  endfacet
  facet normal -5.938517e-001 1.740928e-001 7.855137e-001
    outer loop
      vertex  3.811701e-001 2.103821e+000 -1.484316e-001
      vertex  3.361861e-001 2.095219e+000 -1.805332e-001
      vertex  3.499521e-001 1.591994e+000 -5.859671e-002
    endloop
  endfacet
  facet normal -4.570604e-001 1.807327e-001 8.708797e-001
    outer loop
      vertex  3.811701e-001 2.103821e+000 -1.484316e-001
      vertex  3.499521e-001 1.591994e+000 -5.859671e-002
      vertex  3.983776e-001 1.598445e+000 -3.452052e-002
    endloop
  endfacet
  facet normal -4.573940e-001 1.975792e-001 8.670369e-001
    outer loop
      vertex  3.983776e-001 1.598445e+000 -3.452052e-002
      vertex  3.499521e-001 1.591994e+000 -5.859671e-002
      vertex  3.637180e-001 1.088768e+000 6.333976e-002
    endloop
  endfacet
  facet normal -3.047461e-001 1.995370e-001 9.312974e-001
    outer loop
      vertex  3.983776e-001 1.598445e+000 -3.452052e-002
      vertex  3.637180e-001 1.088768e+000 6.333976e-002
      vertex  4.155850e-001 1.093069e+000 7.939056e-002
    endloop
  endfacet
  facet normal -3.049553e-001 2.163900e-001 9.274576e-001
    outer loop
      vertex  4.155850e-001 1.093069e+000 7.939056e-002
      vertex  3.637180e-001 1.088768e+000 6.333976e-002
      vertex  3.774840e-001 5.855429e-001 1.852762e-001
    endloop
  endfacet
  facet normal -1.484065e-001 2.126361e-001 9.657958e-001
    outer loop
      vertex  4.155850e-001 1.093069e+000 7.939056e-002
      vertex  3.774840e-001 5.855429e-001 1.852762e-001
      vertex  4.327925e-001 5.876933e-001 1.933016e-001
    endloop
  endfacet
  facet normal -1.484970e-001 2.290453e-001 9.620222e-001
    outer loop
      vertex  4.327925e-001 5.876933e-001 1.933016e-001
      vertex  3.774840e-001 5.855429e-001 1.852762e-001
      vertex  3.912500e-001 8.231740e-002 3.072127e-001
    endloop
  endfacet
  facet normal 0.000000e+000 2.198825e-001 9.755264e-001
    outer loop
      vertex  4.327925e-001 5.876933e-001 1.933016e-001
      vertex  3.912500e-001 8.231740e-002 3.072127e-001
      vertex  4.500000e-001 8.231740e-002 3.072127e-001
    endloop
  endfacet
  facet normal -7.069687e-001 1.638762e-001 6.879969e-001
    outer loop
      vertex  3.224201e-001 2.598445e+000 -3.024697e-001
      vertex  2.808776e-001 2.587693e+000 -3.425967e-001
      vertex  2.912021e-001 2.086618e+000 -2.126348e-001
    endloop
  endfacet
  facet normal -5.938485e-001 1.740930e-001 7.855161e-001
    outer loop
      vertex  3.224201e-001 2.598445e+000 -3.024697e-001
      vertex  2.912021e-001 2.086618e+000 -2.126348e-001
      vertex  3.361861e-001 2.095219e+000 -1.805332e-001
    endloop
  endfacet
  facet normal -5.941159e-001 1.904550e-001 7.815070e-001
    outer loop
      vertex  3.361861e-001 2.095219e+000 -1.805332e-001
      vertex  2.912021e-001 2.086618e+000 -2.126348e-001
      vertex  3.015265e-001 1.585543e+000 -8.267291e-002
    endloop
  endfacet
  facet normal -4.573932e-001 1.975797e-001 8.670373e-001
    outer loop
      vertex  3.361861e-001 2.095219e+000 -1.805332e-001
      vertex  3.015265e-001 1.585543e+000 -8.267291e-002
      vertex  3.499521e-001 1.591994e+000 -5.859671e-002
    endloop
  endfacet
  facet normal -4.575905e-001 2.143864e-001 8.629307e-001
    outer loop
      vertex  3.499521e-001 1.591994e+000 -5.859671e-002
      vertex  3.015265e-001 1.585543e+000 -8.267291e-002
      vertex  3.118510e-001 1.084468e+000 4.728896e-002
    endloop
  endfacet
  facet normal -3.049518e-001 2.163901e-001 9.274588e-001
    outer loop
      vertex  3.499521e-001 1.591994e+000 -5.859671e-002
      vertex  3.118510e-001 1.084468e+000 4.728896e-002
      vertex  3.637180e-001 1.088768e+000 6.333976e-002
    endloop
  endfacet
  facet normal -3.050696e-001 2.331963e-001 9.233375e-001
    outer loop
      vertex  3.637180e-001 1.088768e+000 6.333976e-002
      vertex  3.118510e-001 1.084468e+000 4.728896e-002
      vertex  3.221755e-001 5.833925e-001 1.772508e-001
    endloop
  endfacet
  facet normal -1.484970e-001 2.290453e-001 9.620222e-001
    outer loop
      vertex  3.637180e-001 1.088768e+000 6.333976e-002
      vertex  3.221755e-001 5.833925e-001 1.772508e-001
      vertex  3.774840e-001 5.855429e-001 1.852762e-001
    endloop
  endfacet
  facet normal -1.485455e-001 2.454048e-001 9.579722e-001
    outer loop
      vertex  3.774840e-001 5.855429e-001 1.852762e-001
      vertex  3.221755e-001 5.833925e-001 1.772508e-001
      vertex  3.325000e-001 8.231740e-002 3.072127e-001
    endloop
  endfacet
  facet normal 0.000000e+000 2.354951e-001 9.718755e-001
    outer loop
      vertex  3.774840e-001 5.855429e-001 1.852762e-001
      vertex  3.325000e-001 8.231740e-002 3.072127e-001
      vertex  3.912500e-001 8.231740e-002 3.072127e-001
    endloop
  endfacet
  facet normal -7.071010e-001 1.794111e-001 6.839735e-001
    outer loop
      vertex  2.808776e-001 2.587693e+000 -3.425967e-001
      vertex  2.393350e-001 2.576941e+000 -3.827237e-001
      vertex  2.462180e-001 2.078016e+000 -2.447364e-001
    endloop
  endfacet
  facet normal -5.941179e-001 1.904545e-001 7.815056e-001
    outer loop
      vertex  2.808776e-001 2.587693e+000 -3.425967e-001
      vertex  2.462180e-001 2.078016e+000 -2.447364e-001
      vertex  2.912021e-001 2.086618e+000 -2.126348e-001
    endloop
  endfacet
  facet normal -5.942168e-001 2.067723e-001 7.772719e-001
    outer loop
      vertex  2.912021e-001 2.086618e+000 -2.126348e-001
      vertex  2.462180e-001 2.078016e+000 -2.447364e-001
      vertex  2.531010e-001 1.579092e+000 -1.067491e-001
    endloop
  endfacet
  facet normal -4.575913e-001 2.143865e-001 8.629303e-001
    outer loop
      vertex  2.912021e-001 2.086618e+000 -2.126348e-001
      vertex  2.531010e-001 1.579092e+000 -1.067491e-001
      vertex  3.015265e-001 1.585543e+000 -8.267291e-002
    endloop
  endfacet
  facet normal -4.576515e-001 2.311384e-001 8.585628e-001
    outer loop
      vertex  3.015265e-001 1.585543e+000 -8.267291e-002
      vertex  2.531010e-001 1.579092e+000 -1.067491e-001
      vertex  2.599840e-001 1.080167e+000 3.123816e-002
    endloop
  endfacet
  facet normal -3.050736e-001 2.331962e-001 9.233362e-001
    outer loop
      vertex  3.015265e-001 1.585543e+000 -8.267291e-002
      vertex  2.599840e-001 1.080167e+000 3.123816e-002
      vertex  3.118510e-001 1.084468e+000 4.728896e-002
    endloop
  endfacet
  facet normal -3.051004e-001 2.499403e-001 9.189362e-001
    outer loop
      vertex  3.118510e-001 1.084468e+000 4.728896e-002
      vertex  2.599840e-001 1.080167e+000 3.123816e-002
      vertex  2.668670e-001 5.812421e-001 1.692254e-001
    endloop
  endfacet
  facet normal -1.485457e-001 2.454045e-001 9.579722e-001
    outer loop
      vertex  3.118510e-001 1.084468e+000 4.728896e-002
      vertex  2.668670e-001 5.812421e-001 1.692254e-001
      vertex  3.221755e-001 5.833925e-001 1.772508e-001
    endloop
  endfacet
  facet normal -1.485519e-001 2.617006e-001 9.536483e-001
    outer loop
      vertex  3.221755e-001 5.833925e-001 1.772508e-001
      vertex  2.668670e-001 5.812421e-001 1.692254e-001
      vertex  2.737500e-001 8.231740e-002 3.072127e-001
    endloop
  endfacet
  facet normal 0.000000e+000 2.510591e-001 9.679717e-001
    outer loop
      vertex  3.221755e-001 5.833925e-001 1.772508e-001
      vertex  2.737500e-001 8.231740e-002 3.072127e-001
      vertex  3.325000e-001 8.231740e-002 3.072127e-001
    endloop
  endfacet
  facet normal -7.070526e-001 1.949015e-001 6.797721e-001
    outer loop
      vertex  2.393350e-001 2.576941e+000 -3.827237e-001
      vertex  1.977925e-001 2.566189e+000 -4.228506e-001
      vertex  2.012340e-001 2.069415e+000 -2.768380e-001
    endloop
  endfacet
  facet normal -5.942149e-001 2.067723e-001 7.772734e-001
    outer loop
      vertex  2.393350e-001 2.576941e+000 -3.827237e-001
      vertex  2.012340e-001 2.069415e+000 -2.768380e-001
      vertex  2.462180e-001 2.078016e+000 -2.447364e-001
    endloop
  endfacet
  facet normal -5.941448e-001 2.230317e-001 7.728188e-001
    outer loop
      vertex  2.462180e-001 2.078016e+000 -2.447364e-001
      vertex  2.012340e-001 2.069415e+000 -2.768380e-001
      vertex  2.046755e-001 1.572640e+000 -1.308253e-001
    endloop
  endfacet
  facet normal -4.576555e-001 2.311383e-001 8.585607e-001
    outer loop
      vertex  2.462180e-001 2.078016e+000 -2.447364e-001
      vertex  2.046755e-001 1.572640e+000 -1.308253e-001
      vertex  2.531010e-001 1.579092e+000 -1.067491e-001
    endloop
  endfacet
  facet normal -4.575789e-001 2.478204e-001 8.539360e-001
    outer loop
      vertex  2.531010e-001 1.579092e+000 -1.067491e-001
      vertex  2.046755e-001 1.572640e+000 -1.308253e-001
      vertex  2.081170e-001 1.075866e+000 1.518737e-002
    endloop
  endfacet
  facet normal -3.051006e-001 2.499403e-001 9.189360e-001
    outer loop
      vertex  2.531010e-001 1.579092e+000 -1.067491e-001
      vertex  2.081170e-001 1.075866e+000 1.518737e-002
      vertex  2.599840e-001 1.080167e+000 3.123816e-002
    endloop
  endfacet
  facet normal -3.050362e-001 2.666078e-001 9.142610e-001
    outer loop
      vertex  2.599840e-001 1.080167e+000 3.123816e-002
      vertex  2.081170e-001 1.075866e+000 1.518737e-002
      vertex  2.115585e-001 5.790917e-001 1.612000e-001
    endloop
  endfacet
  facet normal -1.485513e-001 2.617003e-001 9.536484e-001
    outer loop
      vertex  2.599840e-001 1.080167e+000 3.123816e-002
      vertex  2.115585e-001 5.790917e-001 1.612000e-001
      vertex  2.668670e-001 5.812421e-001 1.692254e-001
    endloop
  endfacet
  facet normal -1.485153e-001 2.779188e-001 9.490544e-001
    outer loop
      vertex  2.668670e-001 5.812421e-001 1.692254e-001
      vertex  2.115585e-001 5.790917e-001 1.612000e-001
      vertex  2.150000e-001 8.231740e-002 3.072127e-001
    endloop
  endfacet
  facet normal 0.000000e+000 2.665625e-001 9.638177e-001
    outer loop
      vertex  2.668670e-001 5.812421e-001 1.692254e-001
      vertex  2.150000e-001 8.231740e-002 3.072127e-001
      vertex  2.737500e-001 8.231740e-002 3.072127e-001
    endloop
  endfacet
  facet normal -7.068223e-001 2.103351e-001 6.753972e-001
    outer loop
      vertex  1.977925e-001 2.566189e+000 -4.228506e-001
      vertex  1.562500e-001 2.555437e+000 -4.629776e-001
      vertex  1.562500e-001 2.060813e+000 -3.089396e-001
    endloop
  endfacet
  facet normal -5.941486e-001 2.230313e-001 7.728160e-001
    outer loop
      vertex  1.977925e-001 2.566189e+000 -4.228506e-001
      vertex  1.562500e-001 2.060813e+000 -3.089396e-001
      vertex  2.012340e-001 2.069415e+000 -2.768380e-001
    endloop
  endfacet
  facet normal -5.939100e-001 2.392190e-001 7.681440e-001
    outer loop
      vertex  2.012340e-001 2.069415e+000 -2.768380e-001
      vertex  1.562500e-001 2.060813e+000 -3.089396e-001
      vertex  1.562500e-001 1.566189e+000 -1.549015e-001
    endloop
  endfacet
  facet normal -4.575742e-001 2.478206e-001 8.539384e-001
    outer loop
      vertex  2.012340e-001 2.069415e+000 -2.768380e-001
      vertex  1.562500e-001 1.566189e+000 -1.549015e-001
      vertex  2.046755e-001 1.572640e+000 -1.308253e-001
    endloop
  endfacet
  facet normal -4.573604e-001 2.644184e-001 8.490609e-001
    outer loop
      vertex  2.046755e-001 1.572640e+000 -1.308253e-001
      vertex  1.562500e-001 1.566189e+000 -1.549015e-001
      vertex  1.562500e-001 1.071565e+000 -8.634329e-004
    endloop
  endfacet
  facet normal -3.050358e-001 2.666080e-001 9.142610e-001
    outer loop
      vertex  2.046755e-001 1.572640e+000 -1.308253e-001
      vertex  1.562500e-001 1.071565e+000 -8.634329e-004
      vertex  2.081170e-001 1.075866e+000 1.518737e-002
    endloop
  endfacet
  facet normal -3.048799e-001 2.831834e-001 9.093159e-001
    outer loop
      vertex  2.081170e-001 1.075866e+000 1.518737e-002
      vertex  1.562500e-001 1.071565e+000 -8.634329e-004
      vertex  1.562500e-001 5.769413e-001 1.531746e-001
    endloop
  endfacet
  facet normal -1.485158e-001 2.779186e-001 9.490544e-001
    outer loop
      vertex  2.081170e-001 1.075866e+000 1.518737e-002
      vertex  1.562500e-001 5.769413e-001 1.531746e-001
      vertex  2.115585e-001 5.790917e-001 1.612000e-001
    endloop
  endfacet
  facet normal -1.484377e-001 2.940455e-001 9.441947e-001
    outer loop
      vertex  2.115585e-001 5.790917e-001 1.612000e-001
      vertex  1.562500e-001 5.769413e-001 1.531746e-001
      vertex  1.562500e-001 8.231740e-002 3.072127e-001
    endloop
  endfacet
  facet normal 0.000000e+000 2.819932e-001 9.594164e-001
    outer loop
      vertex  2.115585e-001 5.790917e-001 1.612000e-001
      vertex  1.562500e-001 8.231740e-002 3.072127e-001
      vertex  2.150000e-001 8.231740e-002 3.072127e-001
    endloop
  endfacet
  facet normal 0.000000e+000 2.973392e-001 9.547719e-001
    outer loop
      vertex  -1.562500e-001 2.555437e+000 -4.629776e-001
      vertex  -1.562500e-001 2.060813e+000 -3.089396e-001
      vertex  -9.375000e-002 2.060813e+000 -3.089396e-001
    endloop
  endfacet
  facet normal -0.000000e+000 2.973392e-001 9.547719e-001
    outer loop
      vertex  -1.562500e-001 2.555437e+000 -4.629776e-001
      vertex  -9.375000e-002 2.060813e+000 -3.089396e-001
      vertex  -9.375000e-002 2.555437e+000 -4.629776e-001
    endloop
  endfacet
  facet normal 0.000000e+000 2.973392e-001 9.547719e-001
    outer loop
      vertex  -9.375000e-002 2.555437e+000 -4.629776e-001
      vertex  -9.375000e-002 2.060813e+000 -3.089396e-001
      vertex  -3.125000e-002 2.060813e+000 -3.089396e-001
    endloop
  endfacet
  facet normal -0.000000e+000 2.973392e-001 9.547719e-001
    outer loop
      vertex  -9.375000e-002 2.555437e+000 -4.629776e-001
      vertex  -3.125000e-002 2.060813e+000 -3.089396e-001
      vertex  -3.125000e-002 2.555437e+000 -4.629776e-001
    endloop
  endfacet
  facet normal 0.000000e+000 2.973392e-001 9.547719e-001
    outer loop
      vertex  -3.125000e-002 2.555437e+000 -4.629776e-001
      vertex  -3.125000e-002 2.060813e+000 -3.089396e-001
      vertex  3.125000e-002 2.060813e+000 -3.089396e-001
    endloop
  endfacet
  facet normal -0.000000e+000 2.973392e-001 9.547719e-001
    outer loop
      vertex  -3.125000e-002 2.555437e+000 -4.629776e-001
      vertex  3.125000e-002 2.060813e+000 -3.089396e-001
      vertex  3.125000e-002 2.555437e+000 -4.629776e-001
    endloop
  endfacet
  facet normal 0.000000e+000 2.973392e-001 9.547719e-001
    outer loop
      vertex  3.125000e-002 2.555437e+000 -4.629776e-001
      vertex  3.125000e-002 2.060813e+000 -3.089396e-001
      vertex  9.375000e-002 2.060813e+000 -3.089396e-001
    endloop
  endfacet
  facet normal -0.000000e+000 2.973392e-001 9.547719e-001
    outer loop
      vertex  3.125000e-002 2.555437e+000 -4.629776e-001
      vertex  9.375000e-002 2.060813e+000 -3.089396e-001
      vertex  9.375000e-002 2.555437e+000 -4.629776e-001
    endloop
  endfacet
  facet normal 0.000000e+000 2.973392e-001 9.547719e-001
    outer loop
      vertex  9.375000e-002 2.555437e+000 -4.629776e-001
      vertex  9.375000e-002 2.060813e+000 -3.089396e-001
      vertex  1.562500e-001 2.060813e+000 -3.089396e-001
    endloop
  endfacet
  facet normal -0.000000e+000 2.973392e-001 9.547719e-001
    outer loop
      vertex  9.375000e-002 2.555437e+000 -4.629776e-001
      vertex  1.562500e-001 2.060813e+000 -3.089396e-001
      vertex  1.562500e-001 2.555437e+000 -4.629776e-001
    endloop
  endfacet
  facet normal 0.000000e+000 2.973395e-001 9.547718e-001
    outer loop
      vertex  -1.562500e-001 2.060813e+000 -3.089396e-001
      vertex  -1.562500e-001 1.566189e+000 -1.549015e-001
      vertex  -9.375000e-002 1.566189e+000 -1.549015e-001
    endloop
  endfacet
  facet normal -0.000000e+000 2.973395e-001 9.547718e-001
    outer loop
      vertex  -1.562500e-001 2.060813e+000 -3.089396e-001
      vertex  -9.375000e-002 1.566189e+000 -1.549015e-001
      vertex  -9.375000e-002 2.060813e+000 -3.089396e-001
    endloop
  endfacet
  facet normal 0.000000e+000 2.973395e-001 9.547718e-001
    outer loop
      vertex  -9.375000e-002 2.060813e+000 -3.089396e-001
      vertex  -9.375000e-002 1.566189e+000 -1.549015e-001
      vertex  -3.125000e-002 1.566189e+000 -1.549015e-001
    endloop
  endfacet
  facet normal -0.000000e+000 2.973395e-001 9.547718e-001
    outer loop
      vertex  -9.375000e-002 2.060813e+000 -3.089396e-001
      vertex  -3.125000e-002 1.566189e+000 -1.549015e-001
      vertex  -3.125000e-002 2.060813e+000 -3.089396e-001
    endloop
  endfacet
  facet normal 0.000000e+000 2.973395e-001 9.547718e-001
    outer loop
      vertex  -3.125000e-002 2.060813e+000 -3.089396e-001
      vertex  -3.125000e-002 1.566189e+000 -1.549015e-001
      vertex  3.125000e-002 1.566189e+000 -1.549015e-001
    endloop
  endfacet
  facet normal -0.000000e+000 2.973395e-001 9.547718e-001
    outer loop
      vertex  -3.125000e-002 2.060813e+000 -3.089396e-001
      vertex  3.125000e-002 1.566189e+000 -1.549015e-001
      vertex  3.125000e-002 2.060813e+000 -3.089396e-001
    endloop
  endfacet
  facet normal 0.000000e+000 2.973395e-001 9.547718e-001
    outer loop
      vertex  3.125000e-002 2.060813e+000 -3.089396e-001
      vertex  3.125000e-002 1.566189e+000 -1.549015e-001
      vertex  9.375000e-002 1.566189e+000 -1.549015e-001
    endloop
  endfacet
  facet normal -0.000000e+000 2.973395e-001 9.547718e-001
    outer loop
      vertex  3.125000e-002 2.060813e+000 -3.089396e-001
      vertex  9.375000e-002 1.566189e+000 -1.549015e-001
      vertex  9.375000e-002 2.060813e+000 -3.089396e-001
    endloop
  endfacet
  facet normal 0.000000e+000 2.973395e-001 9.547718e-001
    outer loop
      vertex  9.375000e-002 2.060813e+000 -3.089396e-001
      vertex  9.375000e-002 1.566189e+000 -1.549015e-001
      vertex  1.562500e-001 1.566189e+000 -1.549015e-001
    endloop
  endfacet
  facet normal -0.000000e+000 2.973395e-001 9.547718e-001
    outer loop
      vertex  9.375000e-002 2.060813e+000 -3.089396e-001
      vertex  1.562500e-001 1.566189e+000 -1.549015e-001
      vertex  1.562500e-001 2.060813e+000 -3.089396e-001
    endloop
  endfacet
  facet normal 0.000000e+000 2.973394e-001 9.547719e-001
    outer loop
      vertex  -1.562500e-001 1.566189e+000 -1.549015e-001
      vertex  -1.562500e-001 1.071565e+000 -8.634329e-004
      vertex  -9.375000e-002 1.071565e+000 -8.634329e-004
    endloop
  endfacet
  facet normal -0.000000e+000 2.973394e-001 9.547719e-001
    outer loop
      vertex  -1.562500e-001 1.566189e+000 -1.549015e-001
      vertex  -9.375000e-002 1.071565e+000 -8.634329e-004
      vertex  -9.375000e-002 1.566189e+000 -1.549015e-001
    endloop
  endfacet
  facet normal 0.000000e+000 2.973394e-001 9.547719e-001
    outer loop
      vertex  -9.375000e-002 1.566189e+000 -1.549015e-001
      vertex  -9.375000e-002 1.071565e+000 -8.634329e-004
      vertex  -3.125000e-002 1.071565e+000 -8.634329e-004
    endloop
  endfacet
  facet normal -0.000000e+000 2.973394e-001 9.547719e-001
    outer loop
      vertex  -9.375000e-002 1.566189e+000 -1.549015e-001
      vertex  -3.125000e-002 1.071565e+000 -8.634329e-004
      vertex  -3.125000e-002 1.566189e+000 -1.549015e-001
    endloop
  endfacet
  facet normal 0.000000e+000 2.973394e-001 9.547719e-001
    outer loop
      vertex  -3.125000e-002 1.566189e+000 -1.549015e-001
      vertex  -3.125000e-002 1.071565e+000 -8.634329e-004
      vertex  3.125000e-002 1.071565e+000 -8.634329e-004
    endloop
  endfacet
  facet normal -0.000000e+000 2.973394e-001 9.547719e-001
    outer loop
      vertex  -3.125000e-002 1.566189e+000 -1.549015e-001
      vertex  3.125000e-002 1.071565e+000 -8.634329e-004
      vertex  3.125000e-002 1.566189e+000 -1.549015e-001
    endloop
  endfacet
  facet normal 0.000000e+000 2.973394e-001 9.547719e-001
    outer loop
      vertex  3.125000e-002 1.566189e+000 -1.549015e-001
      vertex  3.125000e-002 1.071565e+000 -8.634329e-004
      vertex  9.375000e-002 1.071565e+000 -8.634329e-004
    endloop
  endfacet
  facet normal -0.000000e+000 2.973394e-001 9.547719e-001
    outer loop
      vertex  3.125000e-002 1.566189e+000 -1.549015e-001
      vertex  9.375000e-002 1.071565e+000 -8.634329e-004
      vertex  9.375000e-002 1.566189e+000 -1.549015e-001
    endloop
  endfacet
  facet normal 0.000000e+000 2.973394e-001 9.547719e-001
    outer loop
      vertex  9.375000e-002 1.566189e+000 -1.549015e-001
      vertex  9.375000e-002 1.071565e+000 -8.634329e-004
      vertex  1.562500e-001 1.071565e+000 -8.634329e-004
    endloop
  endfacet
  facet normal -0.000000e+000 2.973394e-001 9.547719e-001
    outer loop
      vertex  9.375000e-002 1.566189e+000 -1.549015e-001
      vertex  1.562500e-001 1.071565e+000 -8.634329e-004
      vertex  1.562500e-001 1.566189e+000 -1.549015e-001
    endloop
  endfacet
  facet normal 0.000000e+000 2.973395e-001 9.547718e-001
    outer loop
      vertex  -1.562500e-001 1.071565e+000 -8.634329e-004
      vertex  -1.562500e-001 5.769413e-001 1.531746e-001
      vertex  -9.375000e-002 5.769413e-001 1.531746e-001
    endloop
  endfacet
  facet normal -0.000000e+000 2.973395e-001 9.547718e-001
    outer loop
      vertex  -1.562500e-001 1.071565e+000 -8.634329e-004
      vertex  -9.375000e-002 5.769413e-001 1.531746e-001
      vertex  -9.375000e-002 1.071565e+000 -8.634329e-004
    endloop
  endfacet
  facet normal 0.000000e+000 2.973395e-001 9.547718e-001
    outer loop
      vertex  -9.375000e-002 1.071565e+000 -8.634329e-004
      vertex  -9.375000e-002 5.769413e-001 1.531746e-001
      vertex  -3.125000e-002 5.769413e-001 1.531746e-001
    endloop
  endfacet
  facet normal -0.000000e+000 2.973395e-001 9.547718e-001
    outer loop
      vertex  -9.375000e-002 1.071565e+000 -8.634329e-004
      vertex  -3.125000e-002 5.769413e-001 1.531746e-001
      vertex  -3.125000e-002 1.071565e+000 -8.634329e-004
    endloop
  endfacet
  facet normal 0.000000e+000 2.973395e-001 9.547718e-001
    outer loop
      vertex  -3.125000e-002 1.071565e+000 -8.634329e-004
      vertex  -3.125000e-002 5.769413e-001 1.531746e-001
      vertex  3.125000e-002 5.769413e-001 1.531746e-001
    endloop
  endfacet
  facet normal -0.000000e+000 2.973395e-001 9.547718e-001
    outer loop
      vertex  -3.125000e-002 1.071565e+000 -8.634329e-004
      vertex  3.125000e-002 5.769413e-001 1.531746e-001
      vertex  3.125000e-002 1.071565e+000 -8.634329e-004
    endloop
  endfacet
  facet normal 0.000000e+000 2.973395e-001 9.547718e-001
    outer loop
      vertex  3.125000e-002 1.071565e+000 -8.634329e-004
      vertex  3.125000e-002 5.769413e-001 1.531746e-001
      vertex  9.375000e-002 5.769413e-001 1.531746e-001
    endloop
  endfacet
  facet normal -0.000000e+000 2.973395e-001 9.547718e-001
    outer loop
      vertex  3.125000e-002 1.071565e+000 -8.634329e-004
      vertex  9.375000e-002 5.769413e-001 1.531746e-001
      vertex  9.375000e-002 1.071565e+000 -8.634329e-004
    endloop
  endfacet
  facet normal 0.000000e+000 2.973395e-001 9.547718e-001
    outer loop
      vertex  9.375000e-002 1.071565e+000 -8.634329e-004
      vertex  9.375000e-002 5.769413e-001 1.531746e-001
      vertex  1.562500e-001 5.769413e-001 1.531746e-001
    endloop
  endfacet
  facet normal -0.000000e+000 2.973395e-001 9.547718e-001
    outer loop
      vertex  9.375000e-002 1.071565e+000 -8.634329e-004
      vertex  1.562500e-001 5.769413e-001 1.531746e-001
      vertex  1.562500e-001 1.071565e+000 -8.634329e-004
    endloop
  endfacet
  facet normal 0.000000e+000 2.973395e-001 9.547718e-001
    outer loop
      vertex  -1.562500e-001 5.769413e-001 1.531746e-001
      vertex  -1.562500e-001 8.231740e-002 3.072127e-001
      vertex  -9.375000e-002 8.231740e-002 3.072127e-001
    endloop
  endfacet
  facet normal -0.000000e+000 2.973395e-001 9.547718e-001
    outer loop
      vertex  -1.562500e-001 5.769413e-001 1.531746e-001
      vertex  -9.375000e-002 8.231740e-002 3.072127e-001
      vertex  -9.375000e-002 5.769413e-001 1.531746e-001
    endloop
  endfacet
  facet normal 0.000000e+000 2.973395e-001 9.547718e-001
    outer loop
      vertex  -9.375000e-002 5.769413e-001 1.531746e-001
      vertex  -9.375000e-002 8.231740e-002 3.072127e-001
      vertex  -3.125000e-002 8.231740e-002 3.072127e-001
    endloop
  endfacet
  facet normal -0.000000e+000 2.973395e-001 9.547718e-001
    outer loop
      vertex  -9.375000e-002 5.769413e-001 1.531746e-001
      vertex  -3.125000e-002 8.231740e-002 3.072127e-001
      vertex  -3.125000e-002 5.769413e-001 1.531746e-001
    endloop
  endfacet
  facet normal 0.000000e+000 2.973395e-001 9.547718e-001
    outer loop
      vertex  -3.125000e-002 5.769413e-001 1.531746e-001
      vertex  -3.125000e-002 8.231740e-002 3.072127e-001
      vertex  3.125000e-002 8.231740e-002 3.072127e-001
    endloop
  endfacet
  facet normal -0.000000e+000 2.973395e-001 9.547718e-001
    outer loop
      vertex  -3.125000e-002 5.769413e-001 1.531746e-001
      vertex  3.125000e-002 8.231740e-002 3.072127e-001
      vertex  3.125000e-002 5.769413e-001 1.531746e-001
    endloop
  endfacet
  facet normal 0.000000e+000 2.973395e-001 9.547718e-001
    outer loop
      vertex  3.125000e-002 5.769413e-001 1.531746e-001
      vertex  3.125000e-002 8.231740e-002 3.072127e-001
      vertex  9.375000e-002 8.231740e-002 3.072127e-001
    endloop
  endfacet
  facet normal -0.000000e+000 2.973395e-001 9.547718e-001
    outer loop
      vertex  3.125000e-002 5.769413e-001 1.531746e-001
      vertex  9.375000e-002 8.231740e-002 3.072127e-001
      vertex  9.375000e-002 5.769413e-001 1.531746e-001
    endloop
  endfacet
  facet normal 0.000000e+000 2.973395e-001 9.547718e-001
    outer loop
      vertex  9.375000e-002 5.769413e-001 1.531746e-001
      vertex  9.375000e-002 8.231740e-002 3.072127e-001
      vertex  1.562500e-001 8.231740e-002 3.072127e-001
    endloop
  endfacet
  facet normal -0.000000e+000 2.973395e-001 9.547718e-001
    outer loop
      vertex  9.375000e-002 5.769413e-001 1.531746e-001
      vertex  1.562500e-001 8.231740e-002 3.072127e-001
      vertex  1.562500e-001 5.769413e-001 1.531746e-001
    endloop
  endfacet
  facet normal 7.070531e-001 1.949013e-001 6.797716e-001
    outer loop
      vertex  -1.562500e-001 2.555437e+000 -4.629776e-001
      vertex  -1.977925e-001 2.566189e+000 -4.228506e-001
      vertex  -2.012340e-001 2.069415e+000 -2.768380e-001
    endloop
  endfacet
  facet normal 5.939101e-001 2.392187e-001 7.681440e-001
    outer loop
      vertex  -1.562500e-001 2.555437e+000 -4.629776e-001
      vertex  -2.012340e-001 2.069415e+000 -2.768380e-001
      vertex  -1.562500e-001 2.060813e+000 -3.089396e-001
    endloop
  endfacet
  facet normal 5.941486e-001 2.230309e-001 7.728161e-001
    outer loop
      vertex  -1.562500e-001 2.060813e+000 -3.089396e-001
      vertex  -2.012340e-001 2.069415e+000 -2.768380e-001
      vertex  -2.046755e-001 1.572640e+000 -1.308253e-001
    endloop
  endfacet
  facet normal 4.573603e-001 2.644185e-001 8.490609e-001
    outer loop
      vertex  -1.562500e-001 2.060813e+000 -3.089396e-001
      vertex  -2.046755e-001 1.572640e+000 -1.308253e-001
      vertex  -1.562500e-001 1.566189e+000 -1.549015e-001
    endloop
  endfacet
  facet normal 4.575742e-001 2.478211e-001 8.539382e-001
    outer loop
      vertex  -1.562500e-001 1.566189e+000 -1.549015e-001
      vertex  -2.046755e-001 1.572640e+000 -1.308253e-001
      vertex  -2.081170e-001 1.075866e+000 1.518737e-002
    endloop
  endfacet
  facet normal 3.048799e-001 2.831833e-001 9.093159e-001
    outer loop
      vertex  -1.562500e-001 1.566189e+000 -1.549015e-001
      vertex  -2.081170e-001 1.075866e+000 1.518737e-002
      vertex  -1.562500e-001 1.071565e+000 -8.634329e-004
    endloop
  endfacet
  facet normal 3.050358e-001 2.666078e-001 9.142611e-001
    outer loop
      vertex  -1.562500e-001 1.071565e+000 -8.634329e-004
      vertex  -2.081170e-001 1.075866e+000 1.518737e-002
      vertex  -2.115585e-001 5.790917e-001 1.612000e-001
    endloop
  endfacet
  facet normal 1.484377e-001 2.940455e-001 9.441946e-001
    outer loop
      vertex  -1.562500e-001 1.071565e+000 -8.634329e-004
      vertex  -2.115585e-001 5.790917e-001 1.612000e-001
      vertex  -1.562500e-001 5.769413e-001 1.531746e-001
    endloop
  endfacet
  facet normal 1.485159e-001 2.779187e-001 9.490544e-001
    outer loop
      vertex  -1.562500e-001 5.769413e-001 1.531746e-001
      vertex  -2.115585e-001 5.790917e-001 1.612000e-001
      vertex  -2.150000e-001 8.231740e-002 3.072127e-001
    endloop
  endfacet
  facet normal 0.000000e+000 2.973395e-001 9.547718e-001
    outer loop
      vertex  -1.562500e-001 5.769413e-001 1.531746e-001
      vertex  -2.150000e-001 8.231740e-002 3.072127e-001
      vertex  -1.562500e-001 8.231740e-002 3.072127e-001
    endloop
  endfacet
  facet normal 7.071013e-001 1.794110e-001 6.839733e-001
    outer loop
      vertex  -1.977925e-001 2.566189e+000 -4.228506e-001
      vertex  -2.393350e-001 2.576941e+000 -3.827237e-001
      vertex  -2.462180e-001 2.078016e+000 -2.447364e-001
    endloop
  endfacet
  facet normal 5.941447e-001 2.230321e-001 7.728187e-001
    outer loop
      vertex  -1.977925e-001 2.566189e+000 -4.228506e-001
      vertex  -2.462180e-001 2.078016e+000 -2.447364e-001
      vertex  -2.012340e-001 2.069415e+000 -2.768380e-001
    endloop
  endfacet
  facet normal 5.942148e-001 2.067727e-001 7.772733e-001
    outer loop
      vertex  -2.012340e-001 2.069415e+000 -2.768380e-001
      vertex  -2.462180e-001 2.078016e+000 -2.447364e-001
      vertex  -2.531010e-001 1.579092e+000 -1.067491e-001
    endloop
  endfacet
  facet normal 4.575790e-001 2.478199e-001 8.539361e-001
    outer loop
      vertex  -2.012340e-001 2.069415e+000 -2.768380e-001
      vertex  -2.531010e-001 1.579092e+000 -1.067491e-001
      vertex  -2.046755e-001 1.572640e+000 -1.308253e-001
    endloop
  endfacet
  facet normal 4.576556e-001 2.311378e-001 8.585609e-001
    outer loop
      vertex  -2.046755e-001 1.572640e+000 -1.308253e-001
      vertex  -2.531010e-001 1.579092e+000 -1.067491e-001
      vertex  -2.599840e-001 1.080167e+000 3.123816e-002
    endloop
  endfacet
  facet normal 3.050363e-001 2.666080e-001 9.142609e-001
    outer loop
      vertex  -2.046755e-001 1.572640e+000 -1.308253e-001
      vertex  -2.599840e-001 1.080167e+000 3.123816e-002
      vertex  -2.081170e-001 1.075866e+000 1.518737e-002
    endloop
  endfacet
  facet normal 3.051008e-001 2.499402e-001 9.189360e-001
    outer loop
      vertex  -2.081170e-001 1.075866e+000 1.518737e-002
      vertex  -2.599840e-001 1.080167e+000 3.123816e-002
      vertex  -2.668670e-001 5.812421e-001 1.692254e-001
    endloop
  endfacet
  facet normal 1.485153e-001 2.779186e-001 9.490545e-001
    outer loop
      vertex  -2.081170e-001 1.075866e+000 1.518737e-002
      vertex  -2.668670e-001 5.812421e-001 1.692254e-001
      vertex  -2.115585e-001 5.790917e-001 1.612000e-001
    endloop
  endfacet
  facet normal 1.485513e-001 2.617006e-001 9.536484e-001
    outer loop
      vertex  -2.115585e-001 5.790917e-001 1.612000e-001
      vertex  -2.668670e-001 5.812421e-001 1.692254e-001
      vertex  -2.737500e-001 8.231740e-002 3.072127e-001
    endloop
  endfacet
  facet normal 0.000000e+000 2.819932e-001 9.594164e-001
    outer loop
      vertex  -2.115585e-001 5.790917e-001 1.612000e-001
      vertex  -2.737500e-001 8.231740e-002 3.072127e-001
      vertex  -2.150000e-001 8.231740e-002 3.072127e-001
    endloop
  endfacet
  facet normal 7.069678e-001 1.638765e-001 6.879978e-001
    outer loop
      vertex  -2.393350e-001 2.576941e+000 -3.827237e-001
      vertex  -2.808776e-001 2.587693e+000 -3.425967e-001
      vertex  -2.912021e-001 2.086618e+000 -2.126348e-001
    endloop
  endfacet
  facet normal 5.942167e-001 2.067719e-001 7.772720e-001
    outer loop
      vertex  -2.393350e-001 2.576941e+000 -3.827237e-001
      vertex  -2.912021e-001 2.086618e+000 -2.126348e-001
      vertex  -2.462180e-001 2.078016e+000 -2.447364e-001
    endloop
  endfacet
  facet normal 5.941178e-001 1.904547e-001 7.815056e-001
    outer loop
      vertex  -2.462180e-001 2.078016e+000 -2.447364e-001
      vertex  -2.912021e-001 2.086618e+000 -2.126348e-001
      vertex  -3.015265e-001 1.585543e+000 -8.267291e-002
    endloop
  endfacet
  facet normal 4.576513e-001 2.311389e-001 8.585628e-001
    outer loop
      vertex  -2.462180e-001 2.078016e+000 -2.447364e-001
      vertex  -3.015265e-001 1.585543e+000 -8.267291e-002
      vertex  -2.531010e-001 1.579092e+000 -1.067491e-001
    endloop
  endfacet
  facet normal 4.575913e-001 2.143863e-001 8.629303e-001
    outer loop
      vertex  -2.531010e-001 1.579092e+000 -1.067491e-001
      vertex  -3.015265e-001 1.585543e+000 -8.267291e-002
      vertex  -3.118510e-001 1.084468e+000 4.728896e-002
    endloop
  endfacet
  facet normal 3.051005e-001 2.499403e-001 9.189360e-001
    outer loop
      vertex  -2.531010e-001 1.579092e+000 -1.067491e-001
      vertex  -3.118510e-001 1.084468e+000 4.728896e-002
      vertex  -2.599840e-001 1.080167e+000 3.123816e-002
    endloop
  endfacet
  facet normal 3.050735e-001 2.331959e-001 9.233363e-001
    outer loop
      vertex  -2.599840e-001 1.080167e+000 3.123816e-002
      vertex  -3.118510e-001 1.084468e+000 4.728896e-002
      vertex  -3.221755e-001 5.833925e-001 1.772508e-001
    endloop
  endfacet
  facet normal 1.485518e-001 2.617003e-001 9.536484e-001
    outer loop
      vertex  -2.599840e-001 1.080167e+000 3.123816e-002
      vertex  -3.221755e-001 5.833925e-001 1.772508e-001
      vertex  -2.668670e-001 5.812421e-001 1.692254e-001
    endloop
  endfacet
  facet normal 1.485457e-001 2.454048e-001 9.579721e-001
    outer loop
      vertex  -2.668670e-001 5.812421e-001 1.692254e-001
      vertex  -3.221755e-001 5.833925e-001 1.772508e-001
      vertex  -3.325000e-001 8.231740e-002 3.072127e-001
    endloop
  endfacet
  facet normal 0.000000e+000 2.665625e-001 9.638177e-001
    outer loop
      vertex  -2.668670e-001 5.812421e-001 1.692254e-001
      vertex  -3.325000e-001 8.231740e-002 3.072127e-001
      vertex  -2.737500e-001 8.231740e-002 3.072127e-001
    endloop
  endfacet
  facet normal 7.066535e-001 1.483090e-001 6.918418e-001
    outer loop
      vertex  -2.808776e-001 2.587693e+000 -3.425967e-001
      vertex  -3.224201e-001 2.598445e+000 -3.024697e-001
      vertex  -3.361861e-001 2.095219e+000 -1.805332e-001
    endloop
  endfacet
  facet normal 5.941160e-001 1.904549e-001 7.815070e-001
    outer loop
      vertex  -2.808776e-001 2.587693e+000 -3.425967e-001
      vertex  -3.361861e-001 2.095219e+000 -1.805332e-001
      vertex  -2.912021e-001 2.086618e+000 -2.126348e-001
    endloop
  endfacet
  facet normal 5.938485e-001 1.740935e-001 7.855160e-001
    outer loop
      vertex  -2.912021e-001 2.086618e+000 -2.126348e-001
      vertex  -3.361861e-001 2.095219e+000 -1.805332e-001
      vertex  -3.499521e-001 1.591994e+000 -5.859671e-002
    endloop
  endfacet
  facet normal 4.575903e-001 2.143867e-001 8.629308e-001
    outer loop
      vertex  -2.912021e-001 2.086618e+000 -2.126348e-001
      vertex  -3.499521e-001 1.591994e+000 -5.859671e-002
      vertex  -3.015265e-001 1.585543e+000 -8.267291e-002
    endloop
  endfacet
  facet normal 4.573932e-001 1.975793e-001 8.670374e-001
    outer loop
      vertex  -3.015265e-001 1.585543e+000 -8.267291e-002
      vertex  -3.499521e-001 1.591994e+000 -5.859671e-002
      vertex  -3.637180e-001 1.088768e+000 6.333976e-002
    endloop
  endfacet
  facet normal 3.050695e-001 2.331965e-001 9.233374e-001
    outer loop
      vertex  -3.015265e-001 1.585543e+000 -8.267291e-002
      vertex  -3.637180e-001 1.088768e+000 6.333976e-002
      vertex  -3.118510e-001 1.084468e+000 4.728896e-002
    endloop
  endfacet
  facet normal 3.049517e-001 2.163903e-001 9.274588e-001
    outer loop
      vertex  -3.118510e-001 1.084468e+000 4.728896e-002
      vertex  -3.637180e-001 1.088768e+000 6.333976e-002
      vertex  -3.774840e-001 5.855429e-001 1.852762e-001
    endloop
  endfacet
  facet normal 1.485453e-001 2.454045e-001 9.579723e-001
    outer loop
      vertex  -3.118510e-001 1.084468e+000 4.728896e-002
      vertex  -3.774840e-001 5.855429e-001 1.852762e-001
      vertex  -3.221755e-001 5.833925e-001 1.772508e-001
    endloop
  endfacet
  facet normal 1.484971e-001 2.290453e-001 9.620223e-001
    outer loop
      vertex  -3.221755e-001 5.833925e-001 1.772508e-001
      vertex  -3.774840e-001 5.855429e-001 1.852762e-001
      vertex  -3.912500e-001 8.231740e-002 3.072127e-001
    endloop
  endfacet
  facet normal 0.000000e+000 2.510591e-001 9.679717e-001
    outer loop
      vertex  -3.221755e-001 5.833925e-001 1.772508e-001
      vertex  -3.912500e-001 8.231740e-002 3.072127e-001
      vertex  -3.325000e-001 8.231740e-002 3.072127e-001
    endloop
  endfacet
  facet normal 7.061574e-001 1.327220e-001 6.955046e-001
    outer loop
      vertex  -3.224201e-001 2.598445e+000 -3.024697e-001
      vertex  -3.639626e-001 2.609197e+000 -2.623427e-001
      vertex  -3.811701e-001 2.103821e+000 -1.484316e-001
    endloop
  endfacet
  facet normal 5.938517e-001 1.740924e-001 7.855139e-001
    outer loop
      vertex  -3.224201e-001 2.598445e+000 -3.024697e-001
      vertex  -3.811701e-001 2.103821e+000 -1.484316e-001
      vertex  -3.361861e-001 2.095219e+000 -1.805332e-001
    endloop
  endfacet
  facet normal 5.934162e-001 1.577010e-001 7.892956e-001
    outer loop
      vertex  -3.361861e-001 2.095219e+000 -1.805332e-001
      vertex  -3.811701e-001 2.103821e+000 -1.484316e-001
      vertex  -3.983776e-001 1.598445e+000 -3.452052e-002
    endloop
  endfacet
  facet normal 4.573941e-001 1.975796e-001 8.670369e-001
    outer loop
      vertex  -3.361861e-001 2.095219e+000 -1.805332e-001
      vertex  -3.983776e-001 1.598445e+000 -3.452052e-002
      vertex  -3.499521e-001 1.591994e+000 -5.859671e-002
    endloop
  endfacet
  facet normal 4.570604e-001 1.807328e-001 8.708797e-001
    outer loop
      vertex  -3.499521e-001 1.591994e+000 -5.859671e-002
      vertex  -3.983776e-001 1.598445e+000 -3.452052e-002
      vertex  -4.155850e-001 1.093069e+000 7.939056e-002
    endloop
  endfacet
  facet normal 3.049552e-001 2.163897e-001 9.274577e-001
    outer loop
      vertex  -3.499521e-001 1.591994e+000 -5.859671e-002
      vertex  -4.155850e-001 1.093069e+000 7.939056e-002
      vertex  -3.637180e-001 1.088768e+000 6.333976e-002
    endloop
  endfacet
  facet normal 3.047461e-001 1.995370e-001 9.312974e-001
    outer loop
      vertex  -3.637180e-001 1.088768e+000 6.333976e-002
      vertex  -4.155850e-001 1.093069e+000 7.939056e-002
      vertex  -4.327925e-001 5.876933e-001 1.933016e-001
    endloop
  endfacet
  facet normal 1.484972e-001 2.290453e-001 9.620223e-001
    outer loop
      vertex  -3.637180e-001 1.088768e+000 6.333976e-002
      vertex  -4.327925e-001 5.876933e-001 1.933016e-001
      vertex  -3.774840e-001 5.855429e-001 1.852762e-001
    endloop
  endfacet
  facet normal 1.484066e-001 2.126361e-001 9.657957e-001
    outer loop
      vertex  -3.774840e-001 5.855429e-001 1.852762e-001
      vertex  -4.327925e-001 5.876933e-001 1.933016e-001
      vertex  -4.500000e-001 8.231740e-002 3.072127e-001
    endloop
  endfacet
  facet normal 0.000000e+000 2.354950e-001 9.718755e-001
    outer loop
      vertex  -3.774840e-001 5.855429e-001 1.852762e-001
      vertex  -4.500000e-001 8.231740e-002 3.072127e-001
      vertex  -3.912500e-001 8.231740e-002 3.072127e-001
    endloop
  endfacet
  facet normal -7.071068e-001 -1.830125e-001 -6.830127e-001
    outer loop
      vertex  -3.639626e-001 4.487289e+000 -7.655758e-001
      vertex  -3.224201e-001 4.487289e+000 -8.085838e-001
      vertex  -3.224201e-001 4.109520e+000 -7.073610e-001
    endloop
  endfacet
  facet normal -7.071061e-001 -1.830126e-001 -6.830134e-001
    outer loop
      vertex  -3.639626e-001 4.487289e+000 -7.655758e-001
      vertex  -3.224201e-001 4.109520e+000 -7.073610e-001
      vertex  -3.639626e-001 4.111670e+000 -6.649292e-001
    endloop
  endfacet
  facet normal -7.071061e-001 -1.830128e-001 -6.830133e-001
    outer loop
      vertex  -3.639626e-001 4.111670e+000 -6.649292e-001
      vertex  -3.224201e-001 4.109520e+000 -7.073610e-001
      vertex  -3.224201e-001 3.731751e+000 -6.061381e-001
    endloop
  endfacet
  facet normal -7.071070e-001 -1.830128e-001 -6.830125e-001
    outer loop
      vertex  -3.639626e-001 4.111670e+000 -6.649292e-001
      vertex  -3.224201e-001 3.731751e+000 -6.061381e-001
      vertex  -3.639626e-001 3.736052e+000 -5.642826e-001
    endloop
  endfacet
  facet normal -7.071069e-001 -1.830125e-001 -6.830125e-001
    outer loop
      vertex  -3.639626e-001 3.736052e+000 -5.642826e-001
      vertex  -3.224201e-001 3.731751e+000 -6.061381e-001
      vertex  -3.224201e-001 3.353982e+000 -5.049153e-001
    endloop
  endfacet
  facet normal -7.071090e-001 -1.830124e-001 -6.830105e-001
    outer loop
      vertex  -3.639626e-001 3.736052e+000 -5.642826e-001
      vertex  -3.224201e-001 3.353982e+000 -5.049153e-001
      vertex  -3.639626e-001 3.360434e+000 -4.636359e-001
    endloop
  endfacet
  facet normal -7.071091e-001 -1.830124e-001 -6.830105e-001
    outer loop
      vertex  -3.639626e-001 3.360434e+000 -4.636359e-001
      vertex  -3.224201e-001 3.353982e+000 -5.049153e-001
      vertex  -3.224201e-001 2.976214e+000 -4.036925e-001
    endloop
  endfacet
  facet normal -7.071056e-001 -1.830125e-001 -6.830139e-001
    outer loop
      vertex  -3.639626e-001 3.360434e+000 -4.636359e-001
      vertex  -3.224201e-001 2.976214e+000 -4.036925e-001
      vertex  -3.639626e-001 2.984815e+000 -3.629893e-001
    endloop
  endfacet
  facet normal -7.071057e-001 -1.830129e-001 -6.830138e-001
    outer loop
      vertex  -3.639626e-001 2.984815e+000 -3.629893e-001
      vertex  -3.224201e-001 2.976214e+000 -4.036925e-001
      vertex  -3.224201e-001 2.598445e+000 -3.024697e-001
    endloop
  endfacet
  facet normal -7.071070e-001 -1.830128e-001 -6.830125e-001
    outer loop
      vertex  -3.639626e-001 2.984815e+000 -3.629893e-001
      vertex  -3.224201e-001 2.598445e+000 -3.024697e-001
      vertex  -3.639626e-001 2.609197e+000 -2.623427e-001
    endloop
  endfacet
  facet normal -7.071074e-001 -1.830121e-001 -6.830122e-001
    outer loop
      vertex  -3.224201e-001 4.487289e+000 -8.085838e-001
      vertex  -2.808776e-001 4.487289e+000 -8.515918e-001
      vertex  -2.808776e-001 4.107369e+000 -7.497928e-001
    endloop
  endfacet
  facet normal -7.071087e-001 -1.830121e-001 -6.830109e-001
    outer loop
      vertex  -3.224201e-001 4.487289e+000 -8.085838e-001
      vertex  -2.808776e-001 4.107369e+000 -7.497928e-001
      vertex  -3.224201e-001 4.109520e+000 -7.073610e-001
    endloop
  endfacet
  facet normal -7.071087e-001 -1.830124e-001 -6.830108e-001
    outer loop
      vertex  -3.224201e-001 4.109520e+000 -7.073610e-001
      vertex  -2.808776e-001 4.107369e+000 -7.497928e-001
      vertex  -2.808776e-001 3.727450e+000 -6.479937e-001
    endloop
  endfacet
  facet normal -7.071074e-001 -1.830125e-001 -6.830121e-001
    outer loop
      vertex  -3.224201e-001 4.109520e+000 -7.073610e-001
      vertex  -2.808776e-001 3.727450e+000 -6.479937e-001
      vertex  -3.224201e-001 3.731751e+000 -6.061381e-001
    endloop
  endfacet
  facet normal -7.071075e-001 -1.830127e-001 -6.830121e-001
    outer loop
      vertex  -3.224201e-001 3.731751e+000 -6.061381e-001
      vertex  -2.808776e-001 3.727450e+000 -6.479937e-001
      vertex  -2.808776e-001 3.347531e+000 -5.461947e-001
    endloop
  endfacet
  facet normal -7.071062e-001 -1.830127e-001 -6.830133e-001
    outer loop
      vertex  -3.224201e-001 3.731751e+000 -6.061381e-001
      vertex  -2.808776e-001 3.347531e+000 -5.461947e-001
      vertex  -3.224201e-001 3.353982e+000 -5.049153e-001
    endloop
  endfacet
  facet normal -7.071062e-001 -1.830128e-001 -6.830133e-001
    outer loop
      vertex  -3.224201e-001 3.353982e+000 -5.049153e-001
      vertex  -2.808776e-001 3.347531e+000 -5.461947e-001
      vertex  -2.808776e-001 2.967612e+000 -4.443957e-001
    endloop
  endfacet
  facet normal -7.071075e-001 -1.830128e-001 -6.830119e-001
    outer loop
      vertex  -3.224201e-001 3.353982e+000 -5.049153e-001
      vertex  -2.808776e-001 2.967612e+000 -4.443957e-001
      vertex  -3.224201e-001 2.976214e+000 -4.036925e-001
    endloop
  endfacet
  facet normal -7.071075e-001 -1.830125e-001 -6.830120e-001
    outer loop
      vertex  -3.224201e-001 2.976214e+000 -4.036925e-001
      vertex  -2.808776e-001 2.967612e+000 -4.443957e-001
      vertex  -2.808776e-001 2.587693e+000 -3.425967e-001
    endloop
  endfacet
  facet normal -7.071070e-001 -1.830125e-001 -6.830125e-001
    outer loop
      vertex  -3.224201e-001 2.976214e+000 -4.036925e-001
      vertex  -2.808776e-001 2.587693e+000 -3.425967e-001
      vertex  -3.224201e-001 2.598445e+000 -3.024697e-001
    endloop
  endfacet
  facet normal -7.071061e-001 -1.830127e-001 -6.830134e-001
    outer loop
      vertex  -2.808776e-001 4.487289e+000 -8.515918e-001
      vertex  -2.393350e-001 4.487289e+000 -8.945998e-001
      vertex  -2.393350e-001 4.105219e+000 -7.922245e-001
    endloop
  endfacet
  facet normal -7.071049e-001 -1.830128e-001 -6.830146e-001
    outer loop
      vertex  -2.808776e-001 4.487289e+000 -8.515918e-001
      vertex  -2.393350e-001 4.105219e+000 -7.922245e-001
      vertex  -2.808776e-001 4.107369e+000 -7.497928e-001
    endloop
  endfacet
  facet normal -7.071048e-001 -1.830135e-001 -6.830145e-001
    outer loop
      vertex  -2.808776e-001 4.107369e+000 -7.497928e-001
      vertex  -2.393350e-001 4.105219e+000 -7.922245e-001
      vertex  -2.393350e-001 3.723150e+000 -6.898493e-001
    endloop
  endfacet
  facet normal -7.071045e-001 -1.830135e-001 -6.830149e-001
    outer loop
      vertex  -2.808776e-001 4.107369e+000 -7.497928e-001
      vertex  -2.393350e-001 3.723150e+000 -6.898493e-001
      vertex  -2.808776e-001 3.727450e+000 -6.479937e-001
    endloop
  endfacet
  facet normal -7.071046e-001 -1.830130e-001 -6.830149e-001
    outer loop
      vertex  -2.808776e-001 3.727450e+000 -6.479937e-001
      vertex  -2.393350e-001 3.723150e+000 -6.898493e-001
      vertex  -2.393350e-001 3.341080e+000 -5.874741e-001
    endloop
  endfacet
  facet normal -7.071064e-001 -1.830129e-001 -6.830130e-001
    outer loop
      vertex  -2.808776e-001 3.727450e+000 -6.479937e-001
      vertex  -2.393350e-001 3.341080e+000 -5.874741e-001
      vertex  -2.808776e-001 3.347531e+000 -5.461947e-001
    endloop
  endfacet
  facet normal -7.071065e-001 -1.830125e-001 -6.830131e-001
    outer loop
      vertex  -2.808776e-001 3.347531e+000 -5.461947e-001
      vertex  -2.393350e-001 3.341080e+000 -5.874741e-001
      vertex  -2.393350e-001 2.959010e+000 -4.850989e-001
    endloop
  endfacet
  facet normal -7.071075e-001 -1.830125e-001 -6.830121e-001
    outer loop
      vertex  -2.808776e-001 3.347531e+000 -5.461947e-001
      vertex  -2.393350e-001 2.959010e+000 -4.850989e-001
      vertex  -2.808776e-001 2.967612e+000 -4.443957e-001
    endloop
  endfacet
  facet normal -7.071075e-001 -1.830128e-001 -6.830119e-001
    outer loop
      vertex  -2.808776e-001 2.967612e+000 -4.443957e-001
      vertex  -2.393350e-001 2.959010e+000 -4.850989e-001
      vertex  -2.393350e-001 2.576941e+000 -3.827237e-001
    endloop
  endfacet
  facet normal -7.071059e-001 -1.830129e-001 -6.830134e-001
    outer loop
      vertex  -2.808776e-001 2.967612e+000 -4.443957e-001
      vertex  -2.393350e-001 2.576941e+000 -3.827237e-001
      vertex  -2.808776e-001 2.587693e+000 -3.425967e-001
    endloop
  endfacet
  facet normal -7.071073e-001 -1.830126e-001 -6.830121e-001
    outer loop
      vertex  -2.393350e-001 4.487289e+000 -8.945998e-001
      vertex  -1.977925e-001 4.487289e+000 -9.376078e-001
      vertex  -1.977925e-001 4.103069e+000 -8.346563e-001
    endloop
  endfacet
  facet normal -7.071062e-001 -1.830127e-001 -6.830134e-001
    outer loop
      vertex  -2.393350e-001 4.487289e+000 -8.945998e-001
      vertex  -1.977925e-001 4.103069e+000 -8.346563e-001
      vertex  -2.393350e-001 4.105219e+000 -7.922245e-001
    endloop
  endfacet
  facet normal -7.071061e-001 -1.830129e-001 -6.830133e-001
    outer loop
      vertex  -2.393350e-001 4.105219e+000 -7.922245e-001
      vertex  -1.977925e-001 4.103069e+000 -8.346563e-001
      vertex  -1.977925e-001 3.718849e+000 -7.317049e-001
    endloop
  endfacet
  facet normal -7.071074e-001 -1.830128e-001 -6.830119e-001
    outer loop
      vertex  -2.393350e-001 4.105219e+000 -7.922245e-001
      vertex  -1.977925e-001 3.718849e+000 -7.317049e-001
      vertex  -2.393350e-001 3.723150e+000 -6.898493e-001
    endloop
  endfacet
  facet normal -7.071075e-001 -1.830125e-001 -6.830120e-001
    outer loop
      vertex  -2.393350e-001 3.723150e+000 -6.898493e-001
      vertex  -1.977925e-001 3.718849e+000 -7.317049e-001
      vertex  -1.977925e-001 3.334629e+000 -6.287535e-001
    endloop
  endfacet
  facet normal -7.071062e-001 -1.830126e-001 -6.830134e-001
    outer loop
      vertex  -2.393350e-001 3.723150e+000 -6.898493e-001
      vertex  -1.977925e-001 3.334629e+000 -6.287535e-001
      vertex  -2.393350e-001 3.341080e+000 -5.874741e-001
    endloop
  endfacet
  facet normal -7.071062e-001 -1.830128e-001 -6.830134e-001
    outer loop
      vertex  -2.393350e-001 3.341080e+000 -5.874741e-001
      vertex  -1.977925e-001 3.334629e+000 -6.287535e-001
      vertex  -1.977925e-001 2.950409e+000 -5.258021e-001
    endloop
  endfacet
  facet normal -7.071054e-001 -1.830128e-001 -6.830140e-001
    outer loop
      vertex  -2.393350e-001 3.341080e+000 -5.874741e-001
      vertex  -1.977925e-001 2.950409e+000 -5.258021e-001
      vertex  -2.393350e-001 2.959010e+000 -4.850989e-001
    endloop
  endfacet
  facet normal -7.071055e-001 -1.830132e-001 -6.830140e-001
    outer loop
      vertex  -2.393350e-001 2.959010e+000 -4.850989e-001
      vertex  -1.977925e-001 2.950409e+000 -5.258021e-001
      vertex  -1.977925e-001 2.566189e+000 -4.228506e-001
    endloop
  endfacet
  facet normal -7.071062e-001 -1.830131e-001 -6.830131e-001
    outer loop
      vertex  -2.393350e-001 2.959010e+000 -4.850989e-001
      vertex  -1.977925e-001 2.566189e+000 -4.228506e-001
      vertex  -2.393350e-001 2.576941e+000 -3.827237e-001
    endloop
  endfacet
  facet normal -7.071059e-001 -1.830124e-001 -6.830136e-001
    outer loop
      vertex  -1.977925e-001 4.487289e+000 -9.376078e-001
      vertex  -1.562500e-001 4.487289e+000 -9.806157e-001
      vertex  -1.562500e-001 4.100918e+000 -8.770881e-001
    endloop
  endfacet
  facet normal -7.071087e-001 -1.830123e-001 -6.830108e-001
    outer loop
      vertex  -1.977925e-001 4.487289e+000 -9.376078e-001
      vertex  -1.562500e-001 4.100918e+000 -8.770881e-001
      vertex  -1.977925e-001 4.103069e+000 -8.346563e-001
    endloop
  endfacet
  facet normal -7.071087e-001 -1.830125e-001 -6.830108e-001
    outer loop
      vertex  -1.977925e-001 4.103069e+000 -8.346563e-001
      vertex  -1.562500e-001 4.100918e+000 -8.770881e-001
      vertex  -1.562500e-001 3.714548e+000 -7.735605e-001
    endloop
  endfacet
  facet normal -7.071074e-001 -1.830125e-001 -6.830121e-001
    outer loop
      vertex  -1.977925e-001 4.103069e+000 -8.346563e-001
      vertex  -1.562500e-001 3.714548e+000 -7.735605e-001
      vertex  -1.977925e-001 3.718849e+000 -7.317049e-001
    endloop
  endfacet
  facet normal -7.071074e-001 -1.830126e-001 -6.830121e-001
    outer loop
      vertex  -1.977925e-001 3.718849e+000 -7.317049e-001
      vertex  -1.562500e-001 3.714548e+000 -7.735605e-001
      vertex  -1.562500e-001 3.328178e+000 -6.700329e-001
    endloop
  endfacet
  facet normal -7.071071e-001 -1.830126e-001 -6.830123e-001
    outer loop
      vertex  -1.977925e-001 3.718849e+000 -7.317049e-001
      vertex  -1.562500e-001 3.328178e+000 -6.700329e-001
      vertex  -1.977925e-001 3.334629e+000 -6.287535e-001
    endloop
  endfacet
  facet normal -7.071072e-001 -1.830123e-001 -6.830124e-001
    outer loop
      vertex  -1.977925e-001 3.334629e+000 -6.287535e-001
      vertex  -1.562500e-001 3.328178e+000 -6.700329e-001
      vertex  -1.562500e-001 2.941807e+000 -5.665053e-001
    endloop
  endfacet
  facet normal -7.071080e-001 -1.830123e-001 -6.830115e-001
    outer loop
      vertex  -1.977925e-001 3.334629e+000 -6.287535e-001
      vertex  -1.562500e-001 2.941807e+000 -5.665053e-001
      vertex  -1.977925e-001 2.950409e+000 -5.258021e-001
    endloop
  endfacet
  facet normal -7.071080e-001 -1.830127e-001 -6.830114e-001
    outer loop
      vertex  -1.977925e-001 2.950409e+000 -5.258021e-001
      vertex  -1.562500e-001 2.941807e+000 -5.665053e-001
      vertex  -1.562500e-001 2.555437e+000 -4.629776e-001
    endloop
  endfacet
  facet normal -7.071067e-001 -1.830128e-001 -6.830127e-001
    outer loop
      vertex  -1.977925e-001 2.950409e+000 -5.258021e-001
      vertex  -1.562500e-001 2.555437e+000 -4.629776e-001
      vertex  -1.977925e-001 2.566189e+000 -4.228506e-001
    endloop
  endfacet
  facet normal 0.000000e+000 -2.588184e-001 -9.659261e-001
    outer loop
      vertex  -1.562500e-001 4.487289e+000 -9.806157e-001
      vertex  -9.375000e-002 4.487289e+000 -9.806157e-001
      vertex  -9.375000e-002 4.100918e+000 -8.770881e-001
    endloop
  endfacet
  facet normal 0.000000e+000 -2.588184e-001 -9.659261e-001
    outer loop
      vertex  -1.562500e-001 4.487289e+000 -9.806157e-001
      vertex  -9.375000e-002 4.100918e+000 -8.770881e-001
      vertex  -1.562500e-001 4.100918e+000 -8.770881e-001
    endloop
  endfacet
  facet normal 0.000000e+000 -2.588194e-001 -9.659258e-001
    outer loop
      vertex  -1.562500e-001 4.100918e+000 -8.770881e-001
      vertex  -9.375000e-002 4.100918e+000 -8.770881e-001
      vertex  -9.375000e-002 3.714548e+000 -7.735605e-001
    endloop
  endfacet
  facet normal 0.000000e+000 -2.588194e-001 -9.659258e-001
    outer loop
      vertex  -1.562500e-001 4.100918e+000 -8.770881e-001
      vertex  -9.375000e-002 3.714548e+000 -7.735605e-001
      vertex  -1.562500e-001 3.714548e+000 -7.735605e-001
    endloop
  endfacet
  facet normal 0.000000e+000 -2.588191e-001 -9.659258e-001
    outer loop
      vertex  -1.562500e-001 3.714548e+000 -7.735605e-001
      vertex  -9.375000e-002 3.714548e+000 -7.735605e-001
      vertex  -9.375000e-002 3.328178e+000 -6.700329e-001
    endloop
  endfacet
  facet normal 0.000000e+000 -2.588191e-001 -9.659258e-001
    outer loop
      vertex  -1.562500e-001 3.714548e+000 -7.735605e-001
      vertex  -9.375000e-002 3.328178e+000 -6.700329e-001
      vertex  -1.562500e-001 3.328178e+000 -6.700329e-001
    endloop
  endfacet
  facet normal 0.000000e+000 -2.588187e-001 -9.659259e-001
    outer loop
      vertex  -1.562500e-001 3.328178e+000 -6.700329e-001
      vertex  -9.375000e-002 3.328178e+000 -6.700329e-001
      vertex  -9.375000e-002 2.941807e+000 -5.665053e-001
    endloop
  endfacet
  facet normal 0.000000e+000 -2.588187e-001 -9.659259e-001
    outer loop
      vertex  -1.562500e-001 3.328178e+000 -6.700329e-001
      vertex  -9.375000e-002 2.941807e+000 -5.665053e-001
      vertex  -1.562500e-001 2.941807e+000 -5.665053e-001
    endloop
  endfacet
  facet normal 0.000000e+000 -2.588196e-001 -9.659257e-001
    outer loop
      vertex  -1.562500e-001 2.941807e+000 -5.665053e-001
      vertex  -9.375000e-002 2.941807e+000 -5.665053e-001
      vertex  -9.375000e-002 2.555437e+000 -4.629776e-001
    endloop
  endfacet
  facet normal 0.000000e+000 -2.588196e-001 -9.659257e-001
    outer loop
      vertex  -1.562500e-001 2.941807e+000 -5.665053e-001
      vertex  -9.375000e-002 2.555437e+000 -4.629776e-001
      vertex  -1.562500e-001 2.555437e+000 -4.629776e-001
    endloop
  endfacet
  facet normal 0.000000e+000 -2.588184e-001 -9.659261e-001
    outer loop
      vertex  -9.375000e-002 4.487289e+000 -9.806157e-001
      vertex  -3.125000e-002 4.487289e+000 -9.806157e-001
      vertex  -3.125000e-002 4.100918e+000 -8.770881e-001
    endloop
  endfacet
  facet normal 0.000000e+000 -2.588184e-001 -9.659261e-001
    outer loop
      vertex  -9.375000e-002 4.487289e+000 -9.806157e-001
      vertex  -3.125000e-002 4.100918e+000 -8.770881e-001
      vertex  -9.375000e-002 4.100918e+000 -8.770881e-001
    endloop
  endfacet
  facet normal 0.000000e+000 -2.588194e-001 -9.659258e-001
    outer loop
      vertex  -9.375000e-002 4.100918e+000 -8.770881e-001
      vertex  -3.125000e-002 4.100918e+000 -8.770881e-001
      vertex  -3.125000e-002 3.714548e+000 -7.735605e-001
    endloop
  endfacet
  facet normal 0.000000e+000 -2.588194e-001 -9.659258e-001
    outer loop
      vertex  -9.375000e-002 4.100918e+000 -8.770881e-001
      vertex  -3.125000e-002 3.714548e+000 -7.735605e-001
      vertex  -9.375000e-002 3.714548e+000 -7.735605e-001
    endloop
  endfacet
  facet normal 0.000000e+000 -2.588191e-001 -9.659258e-001
    outer loop
      vertex  -9.375000e-002 3.714548e+000 -7.735605e-001
      vertex  -3.125000e-002 3.714548e+000 -7.735605e-001
      vertex  -3.125000e-002 3.328178e+000 -6.700329e-001
    endloop
  endfacet
  facet normal 0.000000e+000 -2.588191e-001 -9.659258e-001
    outer loop
      vertex  -9.375000e-002 3.714548e+000 -7.735605e-001
      vertex  -3.125000e-002 3.328178e+000 -6.700329e-001
      vertex  -9.375000e-002 3.328178e+000 -6.700329e-001
    endloop
  endfacet
  facet normal 0.000000e+000 -2.588187e-001 -9.659259e-001
    outer loop
      vertex  -9.375000e-002 3.328178e+000 -6.700329e-001
      vertex  -3.125000e-002 3.328178e+000 -6.700329e-001
      vertex  -3.125000e-002 2.941807e+000 -5.665053e-001
    endloop
  endfacet
  facet normal 0.000000e+000 -2.588187e-001 -9.659259e-001
    outer loop
      vertex  -9.375000e-002 3.328178e+000 -6.700329e-001
      vertex  -3.125000e-002 2.941807e+000 -5.665053e-001
      vertex  -9.375000e-002 2.941807e+000 -5.665053e-001
    endloop
  endfacet
  facet normal 0.000000e+000 -2.588196e-001 -9.659257e-001
    outer loop
      vertex  -9.375000e-002 2.941807e+000 -5.665053e-001
      vertex  -3.125000e-002 2.941807e+000 -5.665053e-001
      vertex  -3.125000e-002 2.555437e+000 -4.629776e-001
    endloop
  endfacet
  facet normal 0.000000e+000 -2.588196e-001 -9.659257e-001
    outer loop
      vertex  -9.375000e-002 2.941807e+000 -5.665053e-001
      vertex  -3.125000e-002 2.555437e+000 -4.629776e-001
      vertex  -9.375000e-002 2.555437e+000 -4.629776e-001
    endloop
  endfacet
  facet normal 0.000000e+000 -2.588184e-001 -9.659261e-001
    outer loop
      vertex  -3.125000e-002 4.487289e+000 -9.806157e-001
      vertex  3.125000e-002 4.487289e+000 -9.806157e-001
      vertex  3.125000e-002 4.100918e+000 -8.770881e-001
    endloop
  endfacet
  facet normal 0.000000e+000 -2.588184e-001 -9.659261e-001
    outer loop
      vertex  -3.125000e-002 4.487289e+000 -9.806157e-001
      vertex  3.125000e-002 4.100918e+000 -8.770881e-001
      vertex  -3.125000e-002 4.100918e+000 -8.770881e-001
    endloop
  endfacet
  facet normal 0.000000e+000 -2.588194e-001 -9.659258e-001
    outer loop
      vertex  -3.125000e-002 4.100918e+000 -8.770881e-001
      vertex  3.125000e-002 4.100918e+000 -8.770881e-001
      vertex  3.125000e-002 3.714548e+000 -7.735605e-001
    endloop
  endfacet
  facet normal 0.000000e+000 -2.588194e-001 -9.659258e-001
    outer loop
      vertex  -3.125000e-002 4.100918e+000 -8.770881e-001
      vertex  3.125000e-002 3.714548e+000 -7.735605e-001
      vertex  -3.125000e-002 3.714548e+000 -7.735605e-001
    endloop
  endfacet
  facet normal 0.000000e+000 -2.588191e-001 -9.659258e-001
    outer loop
      vertex  -3.125000e-002 3.714548e+000 -7.735605e-001
      vertex  3.125000e-002 3.714548e+000 -7.735605e-001
      vertex  3.125000e-002 3.328178e+000 -6.700329e-001
    endloop
  endfacet
  facet normal 0.000000e+000 -2.588191e-001 -9.659258e-001
    outer loop
      vertex  -3.125000e-002 3.714548e+000 -7.735605e-001
      vertex  3.125000e-002 3.328178e+000 -6.700329e-001
      vertex  -3.125000e-002 3.328178e+000 -6.700329e-001
    endloop
  endfacet
  facet normal 0.000000e+000 -2.588187e-001 -9.659259e-001
    outer loop
      vertex  -3.125000e-002 3.328178e+000 -6.700329e-001
      vertex  3.125000e-002 3.328178e+000 -6.700329e-001
      vertex  3.125000e-002 2.941807e+000 -5.665053e-001
    endloop
  endfacet
  facet normal 0.000000e+000 -2.588187e-001 -9.659259e-001
    outer loop
      vertex  -3.125000e-002 3.328178e+000 -6.700329e-001
      vertex  3.125000e-002 2.941807e+000 -5.665053e-001
      vertex  -3.125000e-002 2.941807e+000 -5.665053e-001
    endloop
  endfacet
  facet normal 0.000000e+000 -2.588196e-001 -9.659257e-001
    outer loop
      vertex  -3.125000e-002 2.941807e+000 -5.665053e-001
      vertex  3.125000e-002 2.941807e+000 -5.665053e-001
      vertex  3.125000e-002 2.555437e+000 -4.629776e-001
    endloop
  endfacet
  facet normal 0.000000e+000 -2.588196e-001 -9.659257e-001
    outer loop
      vertex  -3.125000e-002 2.941807e+000 -5.665053e-001
      vertex  3.125000e-002 2.555437e+000 -4.629776e-001
      vertex  -3.125000e-002 2.555437e+000 -4.629776e-001
    endloop
  endfacet
  facet normal 0.000000e+000 -2.588184e-001 -9.659261e-001
    outer loop
      vertex  3.125000e-002 4.487289e+000 -9.806157e-001
      vertex  9.375000e-002 4.487289e+000 -9.806157e-001
      vertex  9.375000e-002 4.100918e+000 -8.770881e-001
    endloop
  endfacet
  facet normal 0.000000e+000 -2.588184e-001 -9.659261e-001
    outer loop
      vertex  3.125000e-002 4.487289e+000 -9.806157e-001
      vertex  9.375000e-002 4.100918e+000 -8.770881e-001
      vertex  3.125000e-002 4.100918e+000 -8.770881e-001
    endloop
  endfacet
  facet normal 0.000000e+000 -2.588194e-001 -9.659258e-001
    outer loop
      vertex  3.125000e-002 4.100918e+000 -8.770881e-001
      vertex  9.375000e-002 4.100918e+000 -8.770881e-001
      vertex  9.375000e-002 3.714548e+000 -7.735605e-001
    endloop
  endfacet
  facet normal 0.000000e+000 -2.588194e-001 -9.659258e-001
    outer loop
      vertex  3.125000e-002 4.100918e+000 -8.770881e-001
      vertex  9.375000e-002 3.714548e+000 -7.735605e-001
      vertex  3.125000e-002 3.714548e+000 -7.735605e-001
    endloop
  endfacet
  facet normal 0.000000e+000 -2.588191e-001 -9.659258e-001
    outer loop
      vertex  3.125000e-002 3.714548e+000 -7.735605e-001
      vertex  9.375000e-002 3.714548e+000 -7.735605e-001
      vertex  9.375000e-002 3.328178e+000 -6.700329e-001
    endloop
  endfacet
  facet normal 0.000000e+000 -2.588191e-001 -9.659258e-001
    outer loop
      vertex  3.125000e-002 3.714548e+000 -7.735605e-001
      vertex  9.375000e-002 3.328178e+000 -6.700329e-001
      vertex  3.125000e-002 3.328178e+000 -6.700329e-001
    endloop
  endfacet
  facet normal 0.000000e+000 -2.588187e-001 -9.659259e-001
    outer loop
      vertex  3.125000e-002 3.328178e+000 -6.700329e-001
      vertex  9.375000e-002 3.328178e+000 -6.700329e-001
      vertex  9.375000e-002 2.941807e+000 -5.665053e-001
    endloop
  endfacet
  facet normal 0.000000e+000 -2.588187e-001 -9.659259e-001
    outer loop
      vertex  3.125000e-002 3.328178e+000 -6.700329e-001
      vertex  9.375000e-002 2.941807e+000 -5.665053e-001
      vertex  3.125000e-002 2.941807e+000 -5.665053e-001
    endloop
  endfacet
  facet normal 0.000000e+000 -2.588196e-001 -9.659257e-001
    outer loop
      vertex  3.125000e-002 2.941807e+000 -5.665053e-001
      vertex  9.375000e-002 2.941807e+000 -5.665053e-001
      vertex  9.375000e-002 2.555437e+000 -4.629776e-001
    endloop
  endfacet
  facet normal 0.000000e+000 -2.588196e-001 -9.659257e-001
    outer loop
      vertex  3.125000e-002 2.941807e+000 -5.665053e-001
      vertex  9.375000e-002 2.555437e+000 -4.629776e-001
      vertex  3.125000e-002 2.555437e+000 -4.629776e-001
    endloop
  endfacet
  facet normal 0.000000e+000 -2.588184e-001 -9.659261e-001
    outer loop
      vertex  9.375000e-002 4.487289e+000 -9.806157e-001
      vertex  1.562500e-001 4.487289e+000 -9.806157e-001
      vertex  1.562500e-001 4.100918e+000 -8.770881e-001
    endloop
  endfacet
  facet normal 0.000000e+000 -2.588184e-001 -9.659261e-001
    outer loop
      vertex  9.375000e-002 4.487289e+000 -9.806157e-001
      vertex  1.562500e-001 4.100918e+000 -8.770881e-001
      vertex  9.375000e-002 4.100918e+000 -8.770881e-001
    endloop
  endfacet
  facet normal 0.000000e+000 -2.588194e-001 -9.659258e-001
    outer loop
      vertex  9.375000e-002 4.100918e+000 -8.770881e-001
      vertex  1.562500e-001 4.100918e+000 -8.770881e-001
      vertex  1.562500e-001 3.714548e+000 -7.735605e-001
    endloop
  endfacet
  facet normal 0.000000e+000 -2.588194e-001 -9.659258e-001
    outer loop
      vertex  9.375000e-002 4.100918e+000 -8.770881e-001
      vertex  1.562500e-001 3.714548e+000 -7.735605e-001
      vertex  9.375000e-002 3.714548e+000 -7.735605e-001
    endloop
  endfacet
  facet normal 0.000000e+000 -2.588191e-001 -9.659258e-001
    outer loop
      vertex  9.375000e-002 3.714548e+000 -7.735605e-001
      vertex  1.562500e-001 3.714548e+000 -7.735605e-001
      vertex  1.562500e-001 3.328178e+000 -6.700329e-001
    endloop
  endfacet
  facet normal 0.000000e+000 -2.588191e-001 -9.659258e-001
    outer loop
      vertex  9.375000e-002 3.714548e+000 -7.735605e-001
      vertex  1.562500e-001 3.328178e+000 -6.700329e-001
      vertex  9.375000e-002 3.328178e+000 -6.700329e-001
    endloop
  endfacet
  facet normal 0.000000e+000 -2.588187e-001 -9.659259e-001
    outer loop
      vertex  9.375000e-002 3.328178e+000 -6.700329e-001
      vertex  1.562500e-001 3.328178e+000 -6.700329e-001
      vertex  1.562500e-001 2.941807e+000 -5.665053e-001
    endloop
  endfacet
  facet normal 0.000000e+000 -2.588187e-001 -9.659259e-001
    outer loop
      vertex  9.375000e-002 3.328178e+000 -6.700329e-001
      vertex  1.562500e-001 2.941807e+000 -5.665053e-001
      vertex  9.375000e-002 2.941807e+000 -5.665053e-001
    endloop
  endfacet
  facet normal 0.000000e+000 -2.588196e-001 -9.659257e-001
    outer loop
      vertex  9.375000e-002 2.941807e+000 -5.665053e-001
      vertex  1.562500e-001 2.941807e+000 -5.665053e-001
      vertex  1.562500e-001 2.555437e+000 -4.629776e-001
    endloop
  endfacet
  facet normal 0.000000e+000 -2.588196e-001 -9.659257e-001
    outer loop
      vertex  9.375000e-002 2.941807e+000 -5.665053e-001
      vertex  1.562500e-001 2.555437e+000 -4.629776e-001
      vertex  9.375000e-002 2.555437e+000 -4.629776e-001
    endloop
  endfacet
  facet normal 7.071059e-001 -1.830131e-001 -6.830136e-001
    outer loop
      vertex  1.562500e-001 4.487289e+000 -9.806157e-001
      vertex  1.977925e-001 4.487289e+000 -9.376078e-001
      vertex  1.977925e-001 4.103069e+000 -8.346563e-001
    endloop
  endfacet
  facet normal 7.071087e-001 -1.830117e-001 -6.830109e-001
    outer loop
      vertex  1.562500e-001 4.487289e+000 -9.806157e-001
      vertex  1.977925e-001 4.103069e+000 -8.346563e-001
      vertex  1.562500e-001 4.100918e+000 -8.770881e-001
    endloop
  endfacet
  facet normal 7.071087e-001 -1.830122e-001 -6.830109e-001
    outer loop
      vertex  1.562500e-001 4.100918e+000 -8.770881e-001
      vertex  1.977925e-001 4.103069e+000 -8.346563e-001
      vertex  1.977925e-001 3.718849e+000 -7.317049e-001
    endloop
  endfacet
  facet normal 7.071074e-001 -1.830128e-001 -6.830121e-001
    outer loop
      vertex  1.562500e-001 4.100918e+000 -8.770881e-001
      vertex  1.977925e-001 3.718849e+000 -7.317049e-001
      vertex  1.562500e-001 3.714548e+000 -7.735605e-001
    endloop
  endfacet
  facet normal 7.071074e-001 -1.830126e-001 -6.830121e-001
    outer loop
      vertex  1.562500e-001 3.714548e+000 -7.735605e-001
      vertex  1.977925e-001 3.718849e+000 -7.317049e-001
      vertex  1.977925e-001 3.334629e+000 -6.287535e-001
    endloop
  endfacet
  facet normal 7.071071e-001 -1.830126e-001 -6.830123e-001
    outer loop
      vertex  1.562500e-001 3.714548e+000 -7.735605e-001
      vertex  1.977925e-001 3.334629e+000 -6.287535e-001
      vertex  1.562500e-001 3.328178e+000 -6.700329e-001
    endloop
  endfacet
  facet normal 7.071072e-001 -1.830125e-001 -6.830124e-001
    outer loop
      vertex  1.562500e-001 3.328178e+000 -6.700329e-001
      vertex  1.977925e-001 3.334629e+000 -6.287535e-001
      vertex  1.977925e-001 2.950409e+000 -5.258021e-001
    endloop
  endfacet
  facet normal 7.071080e-001 -1.830121e-001 -6.830117e-001
    outer loop
      vertex  1.562500e-001 3.328178e+000 -6.700329e-001
      vertex  1.977925e-001 2.950409e+000 -5.258021e-001
      vertex  1.562500e-001 2.941807e+000 -5.665053e-001
    endloop
  endfacet
  facet normal 7.071080e-001 -1.830125e-001 -6.830115e-001
    outer loop
      vertex  1.562500e-001 2.941807e+000 -5.665053e-001
      vertex  1.977925e-001 2.950409e+000 -5.258021e-001
      vertex  1.977925e-001 2.566189e+000 -4.228506e-001
    endloop
  endfacet
  facet normal 7.071068e-001 -1.830131e-001 -6.830126e-001
    outer loop
      vertex  1.562500e-001 2.941807e+000 -5.665053e-001
      vertex  1.977925e-001 2.566189e+000 -4.228506e-001
      vertex  1.562500e-001 2.555437e+000 -4.629776e-001
    endloop
  endfacet
  facet normal 7.071074e-001 -1.830124e-001 -6.830121e-001
    outer loop
      vertex  1.977925e-001 4.487289e+000 -9.376078e-001
      vertex  2.393350e-001 4.487289e+000 -8.945998e-001
      vertex  2.393350e-001 4.105219e+000 -7.922245e-001
    endloop
  endfacet
  facet normal 7.071061e-001 -1.830130e-001 -6.830133e-001
    outer loop
      vertex  1.977925e-001 4.487289e+000 -9.376078e-001
      vertex  2.393350e-001 4.105219e+000 -7.922245e-001
      vertex  1.977925e-001 4.103069e+000 -8.346563e-001
    endloop
  endfacet
  facet normal 7.071061e-001 -1.830132e-001 -6.830134e-001
    outer loop
      vertex  1.977925e-001 4.103069e+000 -8.346563e-001
      vertex  2.393350e-001 4.105219e+000 -7.922245e-001
      vertex  2.393350e-001 3.723150e+000 -6.898493e-001
    endloop
  endfacet
  facet normal 7.071074e-001 -1.830125e-001 -6.830120e-001
    outer loop
      vertex  1.977925e-001 4.103069e+000 -8.346563e-001
      vertex  2.393350e-001 3.723150e+000 -6.898493e-001
      vertex  1.977925e-001 3.718849e+000 -7.317049e-001
    endloop
  endfacet
  facet normal 7.071075e-001 -1.830123e-001 -6.830122e-001
    outer loop
      vertex  1.977925e-001 3.718849e+000 -7.317049e-001
      vertex  2.393350e-001 3.723150e+000 -6.898493e-001
      vertex  2.393350e-001 3.341080e+000 -5.874741e-001
    endloop
  endfacet
  facet normal 7.071062e-001 -1.830128e-001 -6.830133e-001
    outer loop
      vertex  1.977925e-001 3.718849e+000 -7.317049e-001
      vertex  2.393350e-001 3.341080e+000 -5.874741e-001
      vertex  1.977925e-001 3.334629e+000 -6.287535e-001
    endloop
  endfacet
  facet normal 7.071062e-001 -1.830126e-001 -6.830134e-001
    outer loop
      vertex  1.977925e-001 3.334629e+000 -6.287535e-001
      vertex  2.393350e-001 3.341080e+000 -5.874741e-001
      vertex  2.393350e-001 2.959010e+000 -4.850989e-001
    endloop
  endfacet
  facet normal 7.071054e-001 -1.830129e-001 -6.830140e-001
    outer loop
      vertex  1.977925e-001 3.334629e+000 -6.287535e-001
      vertex  2.393350e-001 2.959010e+000 -4.850989e-001
      vertex  1.977925e-001 2.950409e+000 -5.258021e-001
    endloop
  endfacet
  facet normal 7.071053e-001 -1.830133e-001 -6.830140e-001
    outer loop
      vertex  1.977925e-001 2.950409e+000 -5.258021e-001
      vertex  2.393350e-001 2.959010e+000 -4.850989e-001
      vertex  2.393350e-001 2.576941e+000 -3.827237e-001
    endloop
  endfacet
  facet normal 7.071062e-001 -1.830129e-001 -6.830131e-001
    outer loop
      vertex  1.977925e-001 2.950409e+000 -5.258021e-001
      vertex  2.393350e-001 2.576941e+000 -3.827237e-001
      vertex  1.977925e-001 2.566189e+000 -4.228506e-001
    endloop
  endfacet
  facet normal 7.071062e-001 -1.830124e-001 -6.830134e-001
    outer loop
      vertex  2.393350e-001 4.487289e+000 -8.945998e-001
      vertex  2.808776e-001 4.487289e+000 -8.515918e-001
      vertex  2.808776e-001 4.107369e+000 -7.497928e-001
    endloop
  endfacet
  facet normal 7.071049e-001 -1.830130e-001 -6.830146e-001
    outer loop
      vertex  2.393350e-001 4.487289e+000 -8.945998e-001
      vertex  2.808776e-001 4.107369e+000 -7.497928e-001
      vertex  2.393350e-001 4.105219e+000 -7.922245e-001
    endloop
  endfacet
  facet normal 7.071048e-001 -1.830134e-001 -6.830145e-001
    outer loop
      vertex  2.393350e-001 4.105219e+000 -7.922245e-001
      vertex  2.808776e-001 4.107369e+000 -7.497928e-001
      vertex  2.808776e-001 3.727450e+000 -6.479937e-001
    endloop
  endfacet
  facet normal 7.071046e-001 -1.830136e-001 -6.830149e-001
    outer loop
      vertex  2.393350e-001 4.105219e+000 -7.922245e-001
      vertex  2.808776e-001 3.727450e+000 -6.479937e-001
      vertex  2.393350e-001 3.723150e+000 -6.898493e-001
    endloop
  endfacet
  facet normal 7.071046e-001 -1.830134e-001 -6.830148e-001
    outer loop
      vertex  2.393350e-001 3.723150e+000 -6.898493e-001
      vertex  2.808776e-001 3.727450e+000 -6.479937e-001
      vertex  2.808776e-001 3.347531e+000 -5.461947e-001
    endloop
  endfacet
  facet normal 7.071064e-001 -1.830125e-001 -6.830131e-001
    outer loop
      vertex  2.393350e-001 3.723150e+000 -6.898493e-001
      vertex  2.808776e-001 3.347531e+000 -5.461947e-001
      vertex  2.393350e-001 3.341080e+000 -5.874741e-001
    endloop
  endfacet
  facet normal 7.071064e-001 -1.830127e-001 -6.830130e-001
    outer loop
      vertex  2.393350e-001 3.341080e+000 -5.874741e-001
      vertex  2.808776e-001 3.347531e+000 -5.461947e-001
      vertex  2.808776e-001 2.967612e+000 -4.443957e-001
    endloop
  endfacet
  facet normal 7.071075e-001 -1.830123e-001 -6.830121e-001
    outer loop
      vertex  2.393350e-001 3.341080e+000 -5.874741e-001
      vertex  2.808776e-001 2.967612e+000 -4.443957e-001
      vertex  2.393350e-001 2.959010e+000 -4.850989e-001
    endloop
  endfacet
  facet normal 7.071075e-001 -1.830125e-001 -6.830119e-001
    outer loop
      vertex  2.393350e-001 2.959010e+000 -4.850989e-001
      vertex  2.808776e-001 2.967612e+000 -4.443957e-001
      vertex  2.808776e-001 2.587693e+000 -3.425967e-001
    endloop
  endfacet
  facet normal 7.071061e-001 -1.830132e-001 -6.830134e-001
    outer loop
      vertex  2.393350e-001 2.959010e+000 -4.850989e-001
      vertex  2.808776e-001 2.587693e+000 -3.425967e-001
      vertex  2.393350e-001 2.576941e+000 -3.827237e-001
    endloop
  endfacet
  facet normal 7.071074e-001 -1.830124e-001 -6.830122e-001
    outer loop
      vertex  2.808776e-001 4.487289e+000 -8.515918e-001
      vertex  3.224201e-001 4.487289e+000 -8.085838e-001
      vertex  3.224201e-001 4.109520e+000 -7.073610e-001
    endloop
  endfacet
  facet normal 7.071087e-001 -1.830118e-001 -6.830109e-001
    outer loop
      vertex  2.808776e-001 4.487289e+000 -8.515918e-001
      vertex  3.224201e-001 4.109520e+000 -7.073610e-001
      vertex  2.808776e-001 4.107369e+000 -7.497928e-001
    endloop
  endfacet
  facet normal 7.071087e-001 -1.830122e-001 -6.830109e-001
    outer loop
      vertex  2.808776e-001 4.107369e+000 -7.497928e-001
      vertex  3.224201e-001 4.109520e+000 -7.073610e-001
      vertex  3.224201e-001 3.731751e+000 -6.061381e-001
    endloop
  endfacet
  facet normal 7.071075e-001 -1.830127e-001 -6.830119e-001
    outer loop
      vertex  2.808776e-001 4.107369e+000 -7.497928e-001
      vertex  3.224201e-001 3.731751e+000 -6.061381e-001
      vertex  2.808776e-001 3.727450e+000 -6.479937e-001
    endloop
  endfacet
  facet normal 7.071075e-001 -1.830124e-001 -6.830121e-001
    outer loop
      vertex  2.808776e-001 3.727450e+000 -6.479937e-001
      vertex  3.224201e-001 3.731751e+000 -6.061381e-001
      vertex  3.224201e-001 3.353982e+000 -5.049153e-001
    endloop
  endfacet
  facet normal 7.071062e-001 -1.830130e-001 -6.830133e-001
    outer loop
      vertex  2.808776e-001 3.727450e+000 -6.479937e-001
      vertex  3.224201e-001 3.353982e+000 -5.049153e-001
      vertex  2.808776e-001 3.347531e+000 -5.461947e-001
    endloop
  endfacet
  facet normal 7.071062e-001 -1.830131e-001 -6.830133e-001
    outer loop
      vertex  2.808776e-001 3.347531e+000 -5.461947e-001
      vertex  3.224201e-001 3.353982e+000 -5.049153e-001
      vertex  3.224201e-001 2.976214e+000 -4.036925e-001
    endloop
  endfacet
  facet normal 7.071075e-001 -1.830125e-001 -6.830120e-001
    outer loop
      vertex  2.808776e-001 3.347531e+000 -5.461947e-001
      vertex  3.224201e-001 2.976214e+000 -4.036925e-001
      vertex  2.808776e-001 2.967612e+000 -4.443957e-001
    endloop
  endfacet
  facet normal 7.071075e-001 -1.830124e-001 -6.830120e-001
    outer loop
      vertex  2.808776e-001 2.967612e+000 -4.443957e-001
      vertex  3.224201e-001 2.976214e+000 -4.036925e-001
      vertex  3.224201e-001 2.598445e+000 -3.024697e-001
    endloop
  endfacet
  facet normal 7.071071e-001 -1.830126e-001 -6.830125e-001
    outer loop
      vertex  2.808776e-001 2.967612e+000 -4.443957e-001
      vertex  3.224201e-001 2.598445e+000 -3.024697e-001
      vertex  2.808776e-001 2.587693e+000 -3.425967e-001
    endloop
  endfacet
  facet normal 7.071069e-001 -1.830124e-001 -6.830127e-001
    outer loop
      vertex  3.224201e-001 4.487289e+000 -8.085838e-001
      vertex  3.639626e-001 4.487289e+000 -7.655758e-001
      vertex  3.639626e-001 4.111670e+000 -6.649292e-001
    endloop
  endfacet
  facet normal 7.071061e-001 -1.830127e-001 -6.830134e-001
    outer loop
      vertex  3.224201e-001 4.487289e+000 -8.085838e-001
      vertex  3.639626e-001 4.111670e+000 -6.649292e-001
      vertex  3.224201e-001 4.109520e+000 -7.073610e-001
    endloop
  endfacet
  facet normal 7.071061e-001 -1.830130e-001 -6.830133e-001
    outer loop
      vertex  3.224201e-001 4.109520e+000 -7.073610e-001
      vertex  3.639626e-001 4.111670e+000 -6.649292e-001
      vertex  3.639626e-001 3.736052e+000 -5.642826e-001
    endloop
  endfacet
  facet normal 7.071069e-001 -1.830126e-001 -6.830125e-001
    outer loop
      vertex  3.224201e-001 4.109520e+000 -7.073610e-001
      vertex  3.639626e-001 3.736052e+000 -5.642826e-001
      vertex  3.224201e-001 3.731751e+000 -6.061381e-001
    endloop
  endfacet
  facet normal 7.071069e-001 -1.830130e-001 -6.830125e-001
    outer loop
      vertex  3.224201e-001 3.731751e+000 -6.061381e-001
      vertex  3.639626e-001 3.736052e+000 -5.642826e-001
      vertex  3.639626e-001 3.360434e+000 -4.636359e-001
    endloop
  endfacet
  facet normal 7.071090e-001 -1.830120e-001 -6.830106e-001
    outer loop
      vertex  3.224201e-001 3.731751e+000 -6.061381e-001
      vertex  3.639626e-001 3.360434e+000 -4.636359e-001
      vertex  3.224201e-001 3.353982e+000 -5.049153e-001
    endloop
  endfacet
  facet normal 7.071090e-001 -1.830117e-001 -6.830106e-001
    outer loop
      vertex  3.224201e-001 3.353982e+000 -5.049153e-001
      vertex  3.639626e-001 3.360434e+000 -4.636359e-001
      vertex  3.639626e-001 2.984815e+000 -3.629893e-001
    endloop
  endfacet
  facet normal 7.071057e-001 -1.830132e-001 -6.830136e-001
    outer loop
      vertex  3.224201e-001 3.353982e+000 -5.049153e-001
      vertex  3.639626e-001 2.984815e+000 -3.629893e-001
      vertex  3.224201e-001 2.976214e+000 -4.036925e-001
    endloop
  endfacet
  facet normal 7.071057e-001 -1.830131e-001 -6.830137e-001
    outer loop
      vertex  3.224201e-001 2.976214e+000 -4.036925e-001
      vertex  3.639626e-001 2.984815e+000 -3.629893e-001
      vertex  3.639626e-001 2.609197e+000 -2.623427e-001
    endloop
  endfacet
  facet normal 7.071070e-001 -1.830125e-001 -6.830124e-001
    outer loop
      vertex  3.224201e-001 2.976214e+000 -4.036925e-001
      vertex  3.639626e-001 2.609197e+000 -2.623427e-001
      vertex  3.224201e-001 2.598445e+000 -3.024697e-001
    endloop
  endfacet
endsolid vcg
