solid STL generated by MeshLab
  facet normal 0.000000e+000 1.000000e+000 0.000000e+000
    outer loop
      vertex  3.512500e-001 9.487289e+000 -7.656157e-001
      vertex  1.250000e-003 9.487289e+000 -7.656157e-001
      vertex  1.250000e-003 9.487289e+000 -6.406157e-001
    endloop
  endfacet
  facet normal 0.000000e+000 1.000000e+000 -0.000000e+000
    outer loop
      vertex  3.512500e-001 9.487289e+000 -7.656157e-001
      vertex  1.250000e-003 9.487289e+000 -6.406157e-001
      vertex  3.512500e-001 9.487289e+000 -6.406157e-001
    endloop
  endfacet
  facet normal 0.000000e+000 1.000000e+000 0.000000e+000
    outer loop
      vertex  3.512500e-001 9.487289e+000 -6.406157e-001
      vertex  1.250000e-003 9.487289e+000 -6.406157e-001
      vertex  1.250000e-003 9.487289e+000 -5.156157e-001
    endloop
  endfacet
  facet normal 0.000000e+000 1.000000e+000 -0.000000e+000
    outer loop
      vertex  3.512500e-001 9.487289e+000 -6.406157e-001
      vertex  1.250000e-003 9.487289e+000 -5.156157e-001
      vertex  3.512500e-001 9.487289e+000 -5.156157e-001
    endloop
  endfacet
  facet normal 0.000000e+000 1.000000e+000 0.000000e+000
    outer loop
      vertex  1.250000e-003 9.487289e+000 -7.656157e-001
      vertex  -3.487500e-001 9.487289e+000 -7.656157e-001
      vertex  -3.487500e-001 9.487289e+000 -6.406157e-001
    endloop
  endfacet
  facet normal 0.000000e+000 1.000000e+000 -0.000000e+000
    outer loop
      vertex  1.250000e-003 9.487289e+000 -7.656157e-001
      vertex  -3.487500e-001 9.487289e+000 -6.406157e-001
      vertex  1.250000e-003 9.487289e+000 -6.406157e-001
    endloop
  endfacet
  facet normal 0.000000e+000 1.000000e+000 0.000000e+000
    outer loop
      vertex  1.250000e-003 9.487289e+000 -6.406157e-001
      vertex  -3.487500e-001 9.487289e+000 -6.406157e-001
      vertex  -3.487500e-001 9.487289e+000 -5.156157e-001
    endloop
  endfacet
  facet normal 0.000000e+000 1.000000e+000 -0.000000e+000
    outer loop
      vertex  1.250000e-003 9.487289e+000 -6.406157e-001
      vertex  -3.487500e-001 9.487289e+000 -5.156157e-001
      vertex  1.250000e-003 9.487289e+000 -5.156157e-001
    endloop
  endfacet
endsolid vcg
